<svg width="300" height="150" viewBox="0 0 300 150" fill="none" xmlns="http://www.w3.org/2000/svg">
  <rect width="300" height="150" fill="black" />
  <path
    d="M239.451 69.0576C241.037 64.222 240.491 58.9272 237.954 54.53C234.139 47.7844 226.468 44.3151 218.978 45.9475C215.646 42.1358 210.857 39.968 205.839 40.0004C198.18 39.9816 191.387 44.9873 189.03 52.3862C184.111 53.4091 179.865 56.5361 177.381 60.9667C173.536 67.6935 174.412 76.1716 179.548 81.9424C177.962 86.778 178.507 92.0728 181.045 96.47C184.86 103.216 192.531 106.685 200.021 105.053C203.353 108.864 208.141 111.032 213.16 111C220.823 111.019 227.619 106.011 229.974 98.6065C234.893 97.5836 239.139 94.4566 241.623 90.026C245.464 83.2992 244.586 74.8252 239.451 69.0576ZM213.166 106.357C210.101 106.361 207.132 105.272 204.778 103.278C204.884 103.22 205.07 103.115 205.191 103.04L219.115 94.8741C219.826 94.4629 220.264 93.6937 220.259 92.8629V72.933L226.144 76.3835C226.207 76.4148 226.25 76.4764 226.258 76.5474V93.0528C226.25 100.391 220.396 106.34 213.166 106.357ZM185.009 94.1477C183.473 91.4538 182.92 88.2976 183.445 85.2312C183.549 85.2938 183.729 85.4065 183.858 85.4816L197.782 93.6477C198.488 94.0673 199.363 94.0673 200.069 93.6477L217.069 83.6823V90.5823C217.073 90.6543 217.041 90.7222 216.985 90.766L202.909 99.0167C196.642 102.682 188.633 100.504 185.009 94.1477ZM181.346 63.2858C182.874 60.5888 185.289 58.5233 188.167 57.4525C188.167 57.5746 188.16 57.7896 188.16 57.9399V74.271C188.154 75.1018 188.591 75.87 189.303 76.2812L206.302 86.2457L200.417 89.6952C200.358 89.7348 200.283 89.7411 200.218 89.7139L186.142 81.456C179.885 77.7758 177.739 69.6494 181.346 63.2858ZM229.7 74.7104L212.7 64.745L218.585 61.2965C218.644 61.2568 218.719 61.2506 218.784 61.2787L232.86 69.5294C239.129 73.2054 241.276 81.3454 237.655 87.709C236.123 90.4018 233.711 92.4652 230.835 93.5402V76.7206C230.842 75.8909 230.409 75.1227 229.7 74.7104ZM235.558 65.7595C235.454 65.6947 235.274 65.5841 235.145 65.509L221.22 57.3429C220.514 56.9243 219.64 56.9243 218.933 57.3429L201.933 67.3083V60.4083C201.929 60.3363 201.961 60.2684 202.017 60.2246L216.093 51.9802C222.364 48.3094 230.379 50.494 233.994 56.8607C235.522 59.5514 236.075 62.6993 235.558 65.7595ZM198.733 78.0587L192.846 74.6081C192.784 74.5768 192.74 74.5152 192.732 74.4443V57.9399C192.737 50.591 198.608 44.6366 205.848 44.6418C208.909 44.6439 211.873 45.7335 214.225 47.7218C214.119 47.7803 213.934 47.8846 213.812 47.9598L199.888 56.1259C199.177 56.5361 198.739 57.3053 198.744 58.1361L198.733 78.0587ZM201.93 71.0605L209.501 66.6205L217.073 71.0574V79.9343L209.501 84.3711L201.93 79.9343V71.0605Z"
    fill="white" />
  <g clip-path="url(#clip0_612_18)">
    <path
      d="M91.5 75.5C91.5 66.5709 98.7749 59.3333 107.75 59.3333C116.725 59.3333 124 66.5709 124 75.5C124 84.4291 116.725 91.6667 107.75 91.6667C98.7749 91.6667 91.5 84.4291 91.5 75.5Z"
      fill="#1ABCFE" />
    <path
      d="M59 107.833C59 98.9042 66.2749 91.6667 75.25 91.6667H91.5V107.833C91.5 116.762 84.2251 124 75.25 124C66.2749 124 59 116.762 59 107.833Z"
      fill="#0ACF83" />
    <path d="M91.5 27V59.3333H107.75C116.725 59.3333 124 52.0958 124 43.1667C124 34.2376 116.725 27 107.75 27H91.5Z"
      fill="#FF7262" />
    <path d="M59 43.1667C59 52.0958 66.2749 59.3333 75.25 59.3333H91.5V27H75.25C66.2749 27 59 34.2376 59 43.1667Z"
      fill="#F24E1E" />
    <path d="M59 75.5C59 84.4291 66.2749 91.6667 75.25 91.6667H91.5V59.3333H75.25C66.2749 59.3333 59 66.5709 59 75.5Z"
      fill="#A259FF" />
  </g>
  <defs>
    <clipPath id="clip0_612_18">
      <rect width="65" height="97" fill="white" transform="translate(59 27)" />
    </clipPath>
  </defs>
</svg>