<svg width="300" height="150" viewBox="0 0 300 150" fill="none" xmlns="http://www.w3.org/2000/svg">
  <rect width="300" height="150" fill="black" />
  <path
    d="M180.088 97.312C182.093 97.312 183.469 97.4613 184.216 97.76C184.984 98.0373 185.485 98.432 185.72 98.944C185.976 99.456 186.104 100.085 186.104 100.832C186.104 101.493 186.008 102.368 185.816 103.456L185.56 104.96C185.411 105.835 185.123 106.539 184.696 107.072C184.269 107.605 183.768 107.979 183.192 108.192C182.616 108.405 182.051 108.555 181.496 108.64C182.627 108.832 183.427 109.173 183.896 109.664C184.387 110.155 184.632 110.848 184.632 111.744C184.632 112.363 184.515 113.355 184.28 114.72L183.96 116.544C183.832 117.269 183.651 117.909 183.416 118.464C183.181 119.019 182.861 119.509 182.456 119.936C182.051 120.384 181.56 120.715 180.984 120.928C180.408 121.163 179.8 121.323 179.16 121.408C178.541 121.493 177.859 121.536 177.112 121.536H167L171.256 97.312H180.088ZM181.528 103.904C181.677 103.072 181.752 102.432 181.752 101.984C181.752 101.557 181.613 101.248 181.336 101.056C181.08 100.843 180.237 100.736 178.808 100.736H174.936L173.784 107.264H178.008C178.904 107.264 179.576 107.179 180.024 107.008C180.472 106.837 180.781 106.571 180.952 106.208C181.123 105.824 181.251 105.408 181.336 104.96L181.528 103.904ZM180.184 113.728C180.376 112.661 180.472 111.904 180.472 111.456C180.472 111.221 180.408 111.008 180.28 110.816C180.152 110.624 179.907 110.496 179.544 110.432C179.181 110.368 178.648 110.336 177.944 110.336H173.24L171.896 118.112H176.568C177.08 118.112 177.517 118.091 177.88 118.048C178.264 118.005 178.563 117.92 178.776 117.792C179.011 117.664 179.213 117.461 179.384 117.184C179.555 116.885 179.736 116.213 179.928 115.168L180.184 113.728Z"
    fill="#F9FBFF" />
  <path
    d="M193.299 121.76C191.251 121.76 189.779 121.44 188.883 120.8C187.987 120.16 187.539 119.083 187.539 117.568C187.539 116.864 187.677 115.723 187.955 114.144L188.787 109.44C189.021 108.117 189.288 107.061 189.587 106.272C189.907 105.461 190.333 104.832 190.867 104.384C191.4 103.936 192.093 103.627 192.947 103.456C193.8 103.264 194.909 103.168 196.275 103.168H198.483C200.531 103.168 202.003 103.488 202.899 104.128C203.795 104.768 204.243 105.845 204.243 107.36C204.243 108.064 204.104 109.205 203.827 110.784L202.995 115.488C202.76 116.811 202.483 117.877 202.163 118.688C201.864 119.477 201.448 120.096 200.915 120.544C200.381 120.992 199.688 121.301 198.835 121.472C197.981 121.664 196.872 121.76 195.507 121.76H193.299ZM194.323 118.528H195.763C196.36 118.528 196.872 118.475 197.299 118.368C197.725 118.24 198.067 117.995 198.323 117.632C198.6 117.269 198.835 116.544 199.027 115.456L199.859 110.752C200.115 109.365 200.243 108.448 200.243 108C200.243 107.339 200.04 106.901 199.635 106.688C199.251 106.475 198.525 106.368 197.459 106.368H196.019C195.421 106.368 194.909 106.432 194.483 106.56C194.056 106.667 193.704 106.901 193.427 107.264C193.171 107.627 192.947 108.352 192.755 109.44L191.923 114.144C191.667 115.509 191.539 116.427 191.539 116.896C191.539 117.557 191.731 117.995 192.115 118.208C192.52 118.421 193.256 118.528 194.323 118.528Z"
    fill="#F9FBFF" />
  <path
    d="M217.77 103.392C219.562 103.392 220.842 103.659 221.61 104.192C222.399 104.704 222.794 105.536 222.794 106.688C222.794 107.2 222.655 108.245 222.378 109.824L220.33 121.536H210.73C209.791 121.536 209.023 121.429 208.426 121.216C207.829 121.003 207.381 120.651 207.082 120.16C206.805 119.691 206.666 119.072 206.666 118.304C206.666 117.749 206.762 116.896 206.954 115.744L207.146 114.656C207.338 113.589 207.583 112.757 207.882 112.16C208.181 111.541 208.565 111.093 209.034 110.816C209.525 110.517 210.111 110.325 210.794 110.24C211.498 110.155 212.458 110.112 213.674 110.112H218.474L218.57 109.536C218.719 108.747 218.794 108.203 218.794 107.904C218.794 107.435 218.623 107.104 218.282 106.912C217.941 106.72 217.322 106.624 216.426 106.624H209.994L209.45 103.392H217.77ZM211.85 118.304H217.034L217.93 113.184H212.938C212.277 113.184 211.818 113.291 211.562 113.504C211.327 113.717 211.157 114.144 211.05 114.784L210.794 116.224C210.709 116.672 210.666 117.045 210.666 117.344C210.666 117.621 210.73 117.856 210.858 118.048C210.986 118.219 211.317 118.304 211.85 118.304Z"
    fill="#F9FBFF" />
  <path
    d="M224.868 121.536L227.043 109.248C227.321 107.648 227.641 106.485 228.004 105.76C228.388 105.035 228.857 104.512 229.411 104.192C229.966 103.851 230.638 103.637 231.427 103.552C232.238 103.445 233.124 103.392 234.084 103.392H238.5L237.124 106.688H234.212C233.081 106.688 232.345 106.837 232.004 107.136C231.662 107.413 231.427 107.755 231.299 108.16C231.193 108.565 231.097 109.003 231.011 109.472L228.868 121.536H224.868Z"
    fill="#F9FBFF" />
  <path
    d="M253.095 96H257.063L252.551 121.536H244.519C242.471 121.536 240.999 121.205 240.103 120.544C239.207 119.904 238.759 118.837 238.759 117.344C238.759 116.64 238.898 115.499 239.175 113.92L239.911 109.664C240.124 108.363 240.391 107.317 240.711 106.528C241.031 105.717 241.458 105.088 241.991 104.64C242.524 104.171 243.218 103.851 244.071 103.68C244.946 103.488 246.055 103.392 247.399 103.392H251.783L253.095 96ZM245.607 118.304H249.159L251.207 106.624H247.175C246.578 106.624 246.066 106.677 245.639 106.784C245.234 106.891 244.892 107.125 244.615 107.488C244.338 107.851 244.103 108.576 243.911 109.664L243.143 113.984C242.908 115.243 242.791 116.139 242.791 116.672C242.791 117.333 242.994 117.771 243.399 117.984C243.804 118.197 244.54 118.304 245.607 118.304Z"
    fill="#F9FBFF" />
  <g clip-path="url(#clip0_618_58)">
    <path
      d="M63.0793 63.34C63.1076 61.8266 63.2785 60.3192 63.5897 58.8379L65.4897 48.2307C66.4789 42.6286 68.269 41.0964 73.5686 41.0964H82.7074L81.0273 45.1507H74.1574C71.2289 45.1507 70.7186 46.3214 70.0591 49.9436L68.7479 57.2664C68.3766 58.9642 68.1299 60.6869 68.0099 62.4207C68.0099 64.4007 69.2897 64.7307 72.3674 64.7307H79.1665L77.4471 68.785H70.381C65.2384 68.785 63.0793 67.3943 63.0793 63.34Z"
      fill="#F9FBFF" />
    <path
      d="M81.5376 64.2514C81.5911 62.9311 81.7512 61.6173 82.0165 60.3229L82.9665 54.9407C83.9872 49.0871 85.4161 47.775 91.5165 47.775H94.0368C98.6769 47.775 100.616 49.0557 100.616 52.5679C100.562 53.8881 100.402 55.2019 100.137 56.4964L99.195 61.8943C98.1744 67.7479 96.7455 69.0679 90.645 69.0679H88.1169C83.4769 69.0443 81.5376 67.7636 81.5376 64.2514ZM90.9591 65.3514C93.7384 65.3514 94.2095 64.5107 94.6884 61.8393L95.607 56.4571C95.8374 55.423 95.9844 54.372 96.0467 53.3143C96.0467 51.7429 95.2616 51.4443 92.8669 51.4443H91.2182C88.4388 51.4443 87.9678 52.285 87.4888 54.9564L86.5467 60.3229C86.3163 61.357 86.1692 62.408 86.107 63.4657C86.107 65.0371 86.8921 65.3357 89.2868 65.3357L90.9591 65.3514Z"
      fill="#F9FBFF" />
    <path
      d="M125.552 48.0814C125.534 49.6637 125.377 51.2414 125.081 52.7957L124.296 57.4393C122.655 66.915 120.056 68.7772 112.746 68.7772H101.464L106.324 41.0886H115.942C122.922 41.0964 125.552 42.8486 125.552 48.0814ZM120.653 48.8121C120.653 45.6693 119.161 45.1507 115.212 45.1507H110.501L107.101 64.7307H111.741C117.237 64.7307 118.36 63.6307 119.42 57.4471L120.205 52.8036C120.463 51.4877 120.613 50.1527 120.653 48.8121Z"
      fill="#F9FBFF" />
    <path
      d="M144.285 51.8843C144.284 52.4113 144.236 52.9371 144.143 53.4557L143.617 56.3943C143.029 59.6471 141.82 60.7864 138.789 60.7864H130.749L130.561 61.8943C130.46 62.4127 130.4 62.938 130.38 63.4657C130.38 64.7464 131.04 65.0371 133.16 65.0371H140.508L139.009 68.73H132.28C127.57 68.73 125.85 67.5279 125.85 64.5657C125.868 63.7068 125.952 62.8505 126.101 62.0043L127.53 53.8093C128.41 48.7571 130.529 47.7357 135.9 47.7357H138.389C142.228 47.7907 144.285 48.8121 144.285 51.8843ZM139.715 52.5443C139.715 51.6643 139.174 51.4443 137.486 51.4443H134.863C133.183 51.4443 132.374 51.6643 131.974 53.8643L131.385 57.2271H137.603C137.798 57.2594 137.998 57.2484 138.188 57.1951C138.378 57.1417 138.554 57.0473 138.703 56.9184C138.853 56.7896 138.973 56.6295 139.054 56.4493C139.135 56.2691 139.176 56.0733 139.174 55.8757L139.574 53.5186C139.646 53.1986 139.688 52.8723 139.7 52.5443H139.715Z"
      fill="#F9FBFF" />
    <path
      d="M144.528 65.0921H153.165C154.594 65.0921 154.853 64.8721 155.104 63.45L155.434 61.5093C155.497 61.2333 155.534 60.9517 155.544 60.6686C155.544 60.1893 155.292 60.1186 154.452 60.1186H150.244C147.025 60.1186 145.965 59.4979 145.965 57.4079C146.003 56.3883 146.126 55.3738 146.334 54.375L146.625 52.725C147.355 48.5214 148.454 48.0107 152.584 48.0107H161.832L160.262 51.7114H152.607C151.178 51.7114 150.927 51.9236 150.668 53.3536L150.377 55.0036C150.316 55.2801 150.279 55.5614 150.268 55.8443C150.268 56.3157 150.527 56.3943 151.367 56.3943H155.748C158.967 56.3943 160.027 57.015 160.027 59.0971C159.992 60.1191 159.871 61.1364 159.666 62.1379L159.257 64.44C158.606 68.2429 157.506 68.7536 153.188 68.7536H145.188L144.528 65.0921Z"
      fill="#F9FBFF" />
    <path
      d="M165.656 48.0421H170.194L166.575 68.785H162.037L165.656 48.0421ZM167.054 39.9571H171.764L170.924 44.6714H166.213L167.054 39.9571Z"
      fill="#F9FBFF" />
    <path
      d="M190.081 52.5836C190.027 53.9038 189.867 55.2176 189.602 56.5121L187.333 69.3507C186.462 74.3321 184.303 75.3143 180.102 75.3143H172.204L171.544 71.5821H179.074C181.924 71.5821 182.473 71.3621 182.999 68.1486L183.258 66.7186H178.045C173.405 66.7186 171.466 65.4379 171.466 61.9257C171.519 60.6054 171.679 59.2916 171.945 57.9971L172.486 54.9564C173.546 49.1029 174.905 47.7907 181.005 47.7907H183.541C188.142 47.7907 190.081 49.0714 190.081 52.5836ZM183.934 63.01L185.111 56.4571C185.341 55.423 185.488 54.372 185.551 53.3143C185.551 51.7429 184.766 51.4443 182.371 51.4443H180.722C177.943 51.4443 177.503 52.285 177.032 54.9564L176.475 57.9657C176.251 59.0011 176.104 60.0516 176.035 61.1086C176.035 62.68 176.82 62.9786 179.215 62.9786L183.934 63.01Z"
      fill="#F9FBFF" />
    <path
      d="M210.95 51.7743C210.866 53.2741 210.671 54.7658 210.369 56.2371L208.178 68.8086H203.64L205.87 56.2371C206.069 55.2847 206.193 54.3178 206.239 53.3457C206.239 52.065 205.689 51.7743 203.97 51.7743H198.631L195.671 68.7457H191.141L194.761 48.0029H204.81C209.489 48.0421 210.95 49.1421 210.95 51.7743Z"
      fill="#F9FBFF" />
    <path
      d="M50.3131 68.7614H28.2119C28.1047 68.7607 27.999 68.7367 27.9021 68.6909C27.8052 68.6453 27.7194 68.579 27.6507 68.4967C27.5819 68.4145 27.5319 68.3183 27.5041 68.2147C27.4763 68.1112 27.4713 68.0028 27.4895 67.8971L28.7222 60.8886H51.4358C51.5436 60.8882 51.6502 60.9114 51.7481 60.9566C51.8459 61.0018 51.9327 61.0679 52.0023 61.1503C52.0719 61.2327 52.1227 61.3294 52.1509 61.4335C52.1792 61.5376 52.1844 61.6465 52.166 61.7529L51.0354 68.18C50.9995 68.3449 50.9082 68.4926 50.7768 68.5984C50.6454 68.7042 50.4817 68.7617 50.3131 68.7614Z"
      fill="url(#paint0_linear_618_58)" />
    <path
      d="M54.4663 45.1507H31.5015L32.7969 37.8907C32.825 37.72 32.9134 37.5652 33.046 37.4542C33.1785 37.3431 33.3464 37.2834 33.5192 37.2857H55.5655C55.6731 37.285 55.7795 37.3082 55.8771 37.3534C55.9746 37.3987 56.061 37.465 56.13 37.5476C56.199 37.6302 56.249 37.727 56.2762 37.8311C56.3035 37.9353 56.3075 38.0441 56.2878 38.15L55.1651 44.5457C55.1348 44.711 55.0491 44.8612 54.922 44.9712C54.795 45.0812 54.6342 45.1445 54.4663 45.1507Z"
      fill="url(#paint1_linear_618_58)" />
    <path
      d="M30.112 53.0236H22.2607L23.5484 45.7636C23.5763 45.5922 23.6644 45.4364 23.7968 45.324C23.9291 45.2118 24.0972 45.1503 24.2707 45.1507H31.5174L30.112 53.0236Z"
      fill="#0064FF" />
    <path
      d="M37.3507 53.0236H30.1118L31.4936 45.1664H39.3449L38.0651 52.4264C38.0326 52.5929 37.9439 52.7432 37.8138 52.852C37.6837 52.9607 37.5201 53.0213 37.3507 53.0236Z"
      fill="#00C7F8" />
    <path
      d="M28.7222 60.8886H21.7346C21.6271 60.8893 21.5207 60.8661 21.4231 60.8208C21.3255 60.7756 21.2391 60.7093 21.1701 60.6267C21.1011 60.5441 21.0511 60.4473 21.0239 60.3431C20.9966 60.239 20.9926 60.1301 21.0123 60.0243L22.245 53.0236H30.0962L28.7222 60.8886Z"
      fill="#00C7F8" />
  </g>
  <defs>
    <linearGradient id="paint0_linear_618_58" x1="25.7309" y1="64.825" x2="54.121" y2="64.825"
      gradientUnits="userSpaceOnUse">
      <stop stop-color="#FFA000" />
      <stop offset="0.5" stop-color="#FFB700" />
      <stop offset="1" stop-color="#FFD300" />
    </linearGradient>
    <linearGradient id="paint1_linear_618_58" x1="31.5015" y1="41.2221" x2="56.3349" y2="41.2221"
      gradientUnits="userSpaceOnUse">
      <stop offset="0.04" stop-color="#0064FF" />
      <stop offset="0.29" stop-color="#006DFF" />
      <stop offset="0.7" stop-color="#0085FF" />
      <stop offset="1" stop-color="#009BFF" />
    </linearGradient>
    <clipPath id="clip0_618_58">
      <rect width="190" height="44" fill="white" transform="translate(21 31)" />
    </clipPath>
  </defs>
</svg>