<svg width="300" height="150" viewBox="0 0 300 150" fill="none" xmlns="http://www.w3.org/2000/svg">
  <rect width="300" height="150" fill="black" />
  <path
    d="M105.325 38.75C99.2719 38.75 94.9079 42.6875 94.9079 48.5938C94.9079 54.5 99.8202 58.4375 105.873 58.4375C109.53 58.4375 112.753 56.9937 114.749 54.5602L110.555 52.143C109.447 53.3516 107.764 54.057 105.873 54.057C103.247 54.057 101.015 52.6898 100.188 50.5023H115.549C115.67 49.8898 115.741 49.2555 115.741 48.5883C115.741 42.6875 111.377 38.75 105.325 38.75ZM100.138 46.6797C100.823 44.4977 102.698 43.125 105.319 43.125C107.945 43.125 109.82 44.4977 110.5 46.6797H100.138ZM164.36 38.75C158.307 38.75 153.943 42.6875 153.943 48.5938C153.943 54.5 158.855 58.4375 164.908 58.4375C168.565 58.4375 171.788 56.9937 173.784 54.5602L169.59 52.143C168.482 53.3516 166.799 54.057 164.908 54.057C162.282 54.057 160.05 52.6898 159.223 50.5023H174.584C174.705 49.8898 174.776 49.2555 174.776 48.5883C174.776 42.6875 170.412 38.75 164.36 38.75ZM159.179 46.6797C159.864 44.4977 161.739 43.125 164.36 43.125C166.986 43.125 168.861 44.4977 169.541 46.6797H159.179ZM137.781 48.5938C137.781 51.875 139.93 54.0625 143.263 54.0625C145.522 54.0625 147.216 53.0398 148.088 51.3719L152.298 53.7945C150.555 56.693 147.287 58.4375 143.263 58.4375C137.205 58.4375 132.847 54.5 132.847 48.5938C132.847 42.6875 137.211 38.75 143.263 38.75C147.287 38.75 150.549 40.4945 152.298 43.393L148.088 45.8156C147.216 44.1477 145.522 43.125 143.263 43.125C139.935 43.125 137.781 45.3125 137.781 48.5938ZM183 32.7344V57.8906H178.066V32.7344H183ZM48.2577 30L68.5154 65H28L48.2577 30ZM98.9046 32.7344L83.7127 58.9844L68.5208 32.7344H74.2171L83.7127 49.1406L93.2083 32.7344H98.9046ZM131.202 39.2969V44.5961C130.654 44.4375 130.072 44.3281 129.447 44.3281C126.262 44.3281 123.965 46.5156 123.965 49.7969V57.8906H119.031V39.2969H123.965V44.3281C123.965 41.55 127.205 39.2969 131.202 39.2969Z"
    fill="white" />
  <path
    d="M276.796 72.5485C273.796 69.4987 269.647 67.5488 264.997 67.5488C260.997 67.5488 257.548 68.9487 254.498 71.3985C253.148 72.4485 251.798 73.6984 250.048 75.3983C249.148 76.1982 224.2 100.497 224.2 100.497C225.55 100.697 227.3 100.697 228.949 100.747C230.449 100.747 259.197 100.747 260.397 100.747C262.797 100.747 264.397 100.747 266.097 100.647C269.997 100.347 273.647 98.9468 276.596 96.047C283.146 89.5974 283.246 79.0981 276.796 72.5485ZM271.997 91.3973C270.697 92.6472 268.447 94.0971 264.747 94.2471C262.997 94.2971 260.997 94.2971 260.047 94.2971H239.999C247.248 87.2475 253.648 81.0479 254.348 80.348C254.998 79.698 256.498 78.2981 257.798 77.1482C260.647 74.6483 263.147 74.0984 264.947 74.1484C267.747 74.1984 270.297 75.3483 272.147 77.1482C276.046 81.0979 275.996 87.4975 271.997 91.3973Z"
    fill="#00A1FF" />
  <path
    d="M236.499 70.9986C233.549 68.7987 230.249 67.5488 226.55 67.5488C221.9 67.5488 217.75 69.4487 214.75 72.5485C208.351 79.0981 208.401 89.5974 215 96.047C217.65 98.6468 220.85 100.047 224.25 100.547L230.649 94.2971C229.599 94.2971 228.149 94.2471 226.8 94.2471C223.05 94.1471 220.8 92.6972 219.55 91.3973C215.55 87.4975 215.45 81.0979 219.35 77.1482C221.15 75.2983 223.75 74.1484 226.55 74.1484C228.299 74.1484 230.699 74.6483 233.399 76.8982C234.699 77.9481 237.549 80.498 238.799 81.5979C238.849 81.6479 238.949 81.6479 238.999 81.5979L243.448 77.2482C243.498 77.1982 243.498 77.0482 243.448 77.0482C241.299 74.9983 238.299 72.3485 236.499 70.9986Z"
    fill="#00C4D6" />
  <path
    d="M266.747 63.849C263.647 55.1996 255.398 49 245.748 49C234.599 49 225.4 57.1495 223.75 67.7488C224.65 67.5988 225.55 67.5488 226.5 67.5488C227.849 67.5488 229.099 67.6988 230.249 67.9988C230.299 67.9988 230.299 67.9988 230.299 67.9988C231.799 60.8492 238.149 55.4996 245.698 55.4996C251.998 55.4996 257.498 59.2993 259.997 64.649C260.047 64.699 260.097 64.749 260.197 64.749C262.097 64.249 264.297 63.949 266.497 64.099C266.697 64.149 266.747 64.049 266.747 63.849Z"
    fill="#006EFF" />
  <path
    d="M46.4149 90C56.5891 90 64.8298 98.2731 64.8298 108.487C64.8288 112.361 63.6179 116.137 61.3674 119.283C59.117 122.43 55.9403 124.788 52.2846 126.027C51.3639 126.212 51.0186 125.634 51.0186 125.149C51.0186 124.525 51.0416 122.538 51.0416 120.065C51.0416 118.332 50.4662 117.223 49.7986 116.645C53.896 116.183 58.2004 114.611 58.2004 107.517C58.2004 105.483 57.4869 103.842 56.3129 102.548C56.4971 102.086 57.1416 100.191 56.1288 97.6491C56.1288 97.6491 54.5865 97.1407 51.0647 99.5441C49.5915 99.1281 48.0262 98.9201 46.4609 98.9201C44.8957 98.9201 43.3304 99.1281 41.8572 99.5441C38.3354 97.1638 36.7931 97.6491 36.7931 97.6491C35.7803 100.191 36.4248 102.086 36.609 102.548C35.435 103.842 34.7214 105.506 34.7214 107.517C34.7214 114.588 39.0029 116.183 43.1002 116.645C42.5708 117.107 42.0874 117.916 41.9263 119.118C40.8674 119.603 38.2203 120.389 36.5629 117.592C36.2177 117.038 35.1818 115.674 33.7316 115.697C32.1894 115.721 33.1101 116.576 33.7547 116.922C34.5373 117.361 35.435 119.002 35.6422 119.534C36.0105 120.573 37.2075 122.561 41.8342 121.706C41.8342 123.254 41.8572 124.71 41.8572 125.149C41.8572 125.634 41.5119 126.189 40.5912 126.027C36.9235 124.802 33.7333 122.448 31.4733 119.299C29.2132 116.151 27.998 112.368 28 108.487C28 98.2731 36.2407 90 46.4149 90Z"
    fill="white" />
  <path
    d="M82.2666 117.221L83.3431 111.135H86.0648L85.293 115.5C85.117 116.511 84.9274 117.283 84.7243 117.816C84.5212 118.348 84.2504 118.738 83.9118 118.984C83.6952 119.134 83.3973 119.257 83.0181 119.352C82.639 119.448 82.0026 119.496 81.1089 119.496H78.0622C77.3446 119.496 76.7623 119.448 76.3155 119.352C75.8686 119.257 75.503 119.134 75.2187 118.984C74.9479 118.833 74.7177 118.642 74.5281 118.41C74.3521 118.178 74.2167 117.898 74.1219 117.57C74.0406 117.228 74 116.852 74 116.443C74 115.883 74.1016 115.042 74.3047 113.922L75.3812 107.836C75.5166 107.044 75.6926 106.395 75.9092 105.889C76.1259 105.37 76.3967 104.967 76.7217 104.68C77.0602 104.38 77.4867 104.168 78.0013 104.045C78.5158 103.908 79.1455 103.84 79.8902 103.84H86.6945L85.7805 106.074H80.2152C79.7142 106.074 79.3215 106.149 79.0372 106.299C78.7528 106.436 78.5294 106.675 78.3669 107.016C78.2179 107.358 78.069 107.939 77.92 108.758L77.1482 113.041C76.891 114.557 76.7623 115.52 76.7623 115.93C76.7623 116.272 76.83 116.538 76.9654 116.73C77.1144 116.907 77.3446 117.037 77.656 117.119C77.9674 117.187 78.4685 117.221 79.159 117.221H82.2666Z"
    fill="white" />
  <path
    d="M89.7173 105.828L90.1845 103.205H92.7843L92.3172 105.828H89.7173ZM87.4222 119.352L89.433 107.734H91.9516L89.9408 119.352H87.4222Z"
    fill="white" />
  <path
    d="M97.6669 109.803L96.7529 115.029C96.631 115.698 96.5701 116.169 96.5701 116.443C96.5701 116.73 96.6446 116.934 96.7935 117.057C96.9425 117.167 97.1524 117.235 97.4232 117.262C97.7075 117.276 98.0325 117.283 98.3981 117.283H99.7793L98.9059 119.352H97.4232C96.7055 119.352 96.1233 119.291 95.6764 119.168C95.2431 119.045 94.9046 118.874 94.6609 118.656C94.4171 118.437 94.2479 118.178 94.1531 117.877C94.0583 117.577 94.0109 117.262 94.0109 116.934C94.0109 116.47 94.0854 115.835 94.2343 115.029L95.1483 109.803H93.6453L93.9906 107.734H95.5139L96.1233 104.291H98.6419L98.0325 107.734H101.262L100.896 109.803H97.6669Z"
    fill="white" />
  <path
    d="M109.141 107.734C110.413 107.734 111.307 107.891 111.822 108.205C112.35 108.519 112.614 109.059 112.614 109.824C112.614 110.329 112.506 111.163 112.289 112.324L111.05 119.352H108.531L109.73 112.508C109.892 111.607 109.973 111.005 109.973 110.705C109.973 110.459 109.912 110.275 109.791 110.152C109.669 110.029 109.466 109.947 109.181 109.906C108.91 109.865 108.613 109.844 108.288 109.844H105.728L104.083 119.352H101.565L104.408 103H106.927L106.094 107.734H109.141Z"
    fill="white" />
  <path
    d="M123.199 107.734H125.717L123.686 119.352H117.979C117.18 119.352 116.537 119.291 116.049 119.168C115.562 119.045 115.189 118.833 114.932 118.533C114.688 118.246 114.567 117.822 114.567 117.262C114.567 117.167 114.573 116.982 114.587 116.709C114.614 116.422 114.716 115.773 114.892 114.762L116.11 107.734H118.629L117.39 114.762C117.254 115.527 117.187 116.067 117.187 116.381C117.187 116.723 117.275 116.955 117.451 117.078C117.627 117.187 117.959 117.242 118.446 117.242H121.533L123.199 107.734Z"
    fill="white" />
  <path
    d="M133.964 107.734C135.264 107.734 136.198 107.945 136.767 108.369C137.336 108.779 137.62 109.462 137.62 110.418C137.62 110.869 137.532 111.6 137.356 112.611L136.889 115.336C136.781 115.951 136.645 116.518 136.483 117.037C136.32 117.556 136.09 117.986 135.792 118.328C135.494 118.669 135.075 118.922 134.533 119.086C134.005 119.264 133.206 119.352 132.136 119.352H126.815L129.658 103H132.177L131.344 107.734H133.964ZM134.838 112.611C135 111.723 135.081 111.135 135.081 110.848C135.081 110.425 134.953 110.145 134.695 110.008C134.452 109.872 133.991 109.803 133.314 109.803H130.999L129.699 117.283H132.299C132.827 117.283 133.226 117.214 133.497 117.078C133.781 116.928 133.978 116.695 134.086 116.381C134.208 116.067 134.303 115.719 134.37 115.336L134.838 112.611Z"
    fill="white" />
  <path
    d="M153.695 103.84C154.101 103.84 154.494 103.861 154.873 103.902C155.266 103.943 155.604 104.025 155.888 104.148C156.173 104.27 156.403 104.462 156.579 104.721C156.755 104.967 156.843 105.329 156.843 105.807C156.843 106.245 156.748 107.023 156.559 108.143L156.213 110.09C156.078 110.883 155.902 111.538 155.685 112.057C155.469 112.577 155.191 112.986 154.853 113.287C154.514 113.587 154.088 113.806 153.573 113.943C153.058 114.066 152.429 114.127 151.684 114.127H147.845L146.931 119.352H144.21L146.911 103.84H153.695ZM153.837 108.143C153.959 107.46 154.02 107.01 154.02 106.791C154.02 106.49 153.912 106.292 153.695 106.197C153.478 106.087 153.079 106.033 152.497 106.033H149.247L148.231 111.934H151.359C151.86 111.934 152.253 111.866 152.537 111.73C152.821 111.579 153.045 111.333 153.207 110.992C153.37 110.637 153.519 110.049 153.654 109.23L153.837 108.143Z"
    fill="white" />
  <path
    d="M164.077 107.734C165.215 107.734 166.027 107.904 166.515 108.246C167.016 108.574 167.266 109.107 167.266 109.844C167.266 110.172 167.178 110.842 167.002 111.852L165.702 119.352H159.609C159.013 119.352 158.525 119.284 158.146 119.148C157.767 119.011 157.483 118.786 157.293 118.471C157.117 118.171 157.029 117.775 157.029 117.283C157.029 116.928 157.09 116.381 157.212 115.643L157.334 114.947C157.456 114.264 157.611 113.731 157.801 113.348C157.991 112.952 158.234 112.665 158.532 112.488C158.844 112.296 159.216 112.173 159.649 112.119C160.096 112.064 160.706 112.037 161.477 112.037H164.524L164.585 111.668C164.68 111.163 164.727 110.814 164.727 110.623C164.727 110.322 164.619 110.111 164.402 109.988C164.186 109.865 163.793 109.803 163.224 109.803H159.142L158.796 107.734H164.077ZM160.32 117.283H163.61L164.179 114.004H161.01C160.59 114.004 160.299 114.072 160.137 114.209C159.988 114.346 159.88 114.619 159.812 115.029L159.649 115.951C159.595 116.238 159.568 116.477 159.568 116.668C159.568 116.846 159.609 116.996 159.69 117.119C159.771 117.228 159.981 117.283 160.32 117.283Z"
    fill="white" />
  <path
    d="M175.935 107.59C177.235 107.59 178.169 107.795 178.738 108.205C179.306 108.615 179.591 109.305 179.591 110.275C179.591 110.725 179.503 111.456 179.327 112.467L178.067 119.66C177.918 120.507 177.695 121.169 177.397 121.648C177.099 122.126 176.7 122.467 176.199 122.672C175.698 122.891 174.98 123 174.046 123H169.659L169.293 120.91H173.477C174.019 120.91 174.384 120.883 174.574 120.828C174.777 120.787 174.933 120.719 175.041 120.623C175.163 120.527 175.271 120.37 175.366 120.152C175.474 119.947 175.576 119.557 175.671 118.984L175.813 118.184H172.888C171.588 118.184 170.654 117.98 170.085 117.57C169.516 117.16 169.232 116.47 169.232 115.5C169.232 115.049 169.32 114.318 169.496 113.307L169.801 111.607C170.031 110.336 170.309 109.448 170.634 108.943C170.972 108.423 171.432 108.068 172.015 107.877C172.611 107.686 173.45 107.59 174.533 107.59H175.935ZM173.538 116.115H176.179L176.808 112.447C176.971 111.559 177.052 110.971 177.052 110.684C177.052 110.261 176.923 109.981 176.666 109.844C176.422 109.708 175.962 109.639 175.285 109.639H174.371C173.992 109.639 173.667 109.68 173.396 109.762C173.125 109.831 172.908 109.981 172.746 110.213C172.583 110.445 172.441 110.91 172.319 111.607L172.015 113.307C171.852 114.223 171.771 114.81 171.771 115.07C171.771 115.493 171.893 115.773 172.137 115.91C172.394 116.046 172.861 116.115 173.538 116.115Z"
    fill="white" />
  <path
    d="M188.153 107.59C188.979 107.59 189.622 107.679 190.083 107.857C190.543 108.02 190.882 108.273 191.098 108.615C191.315 108.943 191.423 109.366 191.423 109.885C191.423 110.199 191.396 110.5 191.342 110.787L191.058 112.406C190.895 113.321 190.618 113.963 190.225 114.332C189.832 114.687 189.216 114.865 188.377 114.865H183.908L183.807 115.5C183.739 115.883 183.705 116.183 183.705 116.402C183.705 116.743 183.813 116.975 184.03 117.098C184.247 117.221 184.653 117.283 185.249 117.283H189.331L188.498 119.352H184.761C184.274 119.352 183.807 119.318 183.36 119.25C182.913 119.195 182.527 119.086 182.202 118.922C181.891 118.772 181.64 118.546 181.451 118.246C181.274 117.945 181.186 117.536 181.186 117.016C181.186 116.634 181.234 116.156 181.329 115.582L182.121 110.992C182.256 110.199 182.459 109.557 182.73 109.066C183.014 108.574 183.441 108.205 184.01 107.959C184.578 107.713 185.499 107.59 186.772 107.59H188.153ZM188.823 110.787C188.864 110.541 188.884 110.363 188.884 110.254C188.884 110.022 188.796 109.865 188.62 109.783C188.444 109.687 188.119 109.639 187.645 109.639H186.203C185.824 109.639 185.526 109.68 185.31 109.762C185.107 109.844 184.951 110.001 184.842 110.234C184.734 110.452 184.653 110.705 184.599 110.992L184.274 112.877H187.727C187.997 112.877 188.201 112.822 188.336 112.713C188.471 112.59 188.559 112.392 188.6 112.119L188.823 110.787Z"
    fill="white" />
  <path
    d="M192.738 119.352L192.373 117.283H197.186C197.579 117.283 197.836 117.228 197.958 117.119C198.093 117.01 198.195 116.757 198.263 116.361L198.446 115.275C198.486 115.07 198.506 114.913 198.506 114.803C198.506 114.749 198.486 114.687 198.446 114.619C198.405 114.537 198.222 114.496 197.897 114.496H195.561C194.681 114.496 194.065 114.387 193.713 114.168C193.361 113.949 193.185 113.553 193.185 112.98C193.185 112.597 193.253 112.03 193.388 111.279L193.551 110.357C193.659 109.755 193.774 109.305 193.896 109.004C194.018 108.704 194.173 108.464 194.363 108.287C194.553 108.096 194.823 107.959 195.175 107.877C195.528 107.781 196.089 107.734 196.861 107.734H202L201.147 109.803H196.861C196.469 109.803 196.205 109.858 196.069 109.967C195.947 110.077 195.852 110.329 195.785 110.725L195.622 111.648C195.582 111.852 195.561 112.01 195.561 112.119C195.561 112.173 195.582 112.242 195.622 112.324C195.663 112.392 195.846 112.426 196.171 112.426H198.608C199.488 112.426 200.104 112.536 200.456 112.754C200.808 112.973 200.984 113.369 200.984 113.943C200.984 114.325 200.917 114.892 200.781 115.643L200.558 116.934C200.463 117.481 200.341 117.911 200.192 118.225C200.057 118.54 199.881 118.765 199.664 118.902C199.461 119.052 199.197 119.161 198.872 119.23C198.547 119.311 197.985 119.352 197.186 119.352H192.738Z"
    fill="white" />
</svg>