<svg width="300" height="150" viewBox="0 0 300 150" fill="none" xmlns="http://www.w3.org/2000/svg">
  <rect width="300" height="150" fill="black" />
  <path
    d="M72.2689 31.5815H65.7743L61.7199 54.3997H56.9835L61.0075 31.5815H54.4827L55.1875 27.6635H72.9737L72.2689 31.5815Z"
    fill="#FFFBFB" />
  <path
    d="M93.5486 34.4158C93.5328 35.942 93.3807 37.4637 93.094 38.9628L92.3361 43.4491C90.7295 52.5961 88.2438 54.3997 81.1657 54.3997H70.2908L74.9894 27.6787H84.2728C91.0099 27.6787 93.5486 29.3686 93.5486 34.4158ZM88.8197 35.1282C88.8197 32.0968 87.3723 31.5966 83.5604 31.5966H79.0134L75.7244 50.4817H80.2108C85.5156 50.4817 86.5993 49.4208 87.6224 43.4567L88.3802 38.9704C88.6358 37.7044 88.7829 36.419 88.8197 35.1282Z"
    fill="#FFFBFB" />
  <path
    d="M111.623 38.0912C111.621 38.6123 111.573 39.1323 111.479 39.6448L110.979 42.4336C110.418 45.5711 109.251 46.6698 106.318 46.6698H98.5653L98.3834 47.7611C98.2862 48.261 98.2279 48.7678 98.2091 49.2767C98.2091 50.512 98.8456 50.7925 100.892 50.7925H107.985L106.538 54.3618H100.043C95.496 54.3618 93.8364 53.1948 93.8364 50.3378C93.8542 49.5093 93.9353 48.6834 94.0789 47.8672L95.4582 39.9556C96.307 35.0902 98.353 34.0975 103.537 34.0975H105.939C109.645 34.1354 111.623 35.1282 111.623 38.0912ZM107.212 38.7279C107.212 37.8791 106.682 37.6669 105.06 37.6669H102.551C100.93 37.6669 100.149 37.8791 99.7627 39.9934L99.2018 43.2445H105.196C105.385 43.2742 105.577 43.2626 105.761 43.2102C105.945 43.1578 106.114 43.0659 106.259 42.9411C106.403 42.8162 106.518 42.6614 106.597 42.4873C106.675 42.3133 106.714 42.1243 106.712 41.9334L107.098 39.66C107.153 39.3521 107.184 39.0405 107.189 38.7279H107.212Z"
    fill="#FFFBFB" />
  <path
    d="M111.865 50.8304H120.202C121.581 50.8304 121.831 50.6181 122.073 49.2465L122.392 47.3747C122.45 47.1078 122.485 46.8366 122.498 46.5639C122.498 46.1015 122.248 46.0333 121.437 46.0333H117.382C114.275 46.0333 113.252 45.4346 113.252 43.4188C113.285 42.4357 113.402 41.457 113.601 40.4936L113.889 38.9021C114.594 34.8401 115.647 34.3551 119.641 34.3551H128.568L127.052 37.917H119.611C118.231 37.917 117.981 38.1292 117.739 39.5084L117.458 41.0923C117.397 41.3585 117.361 41.6301 117.352 41.9031C117.352 42.3655 117.595 42.4336 118.406 42.4336H122.642C125.749 42.4336 126.772 43.0323 126.772 45.0481C126.738 46.0338 126.622 47.0149 126.423 47.981L126.029 50.2014C125.4 53.8692 124.339 54.3694 120.171 54.3694H112.494L111.865 50.8304Z"
    fill="#FFFBFB" />
  <path
    d="M132.266 34.3855H136.646L133.153 54.3997H128.772L132.266 34.3855ZM133.577 26.5874H138.124L137.313 31.1344H132.766L133.577 26.5874Z"
    fill="#FFFBFB" />
  <path
    d="M155.85 38.7581C155.797 40.0315 155.643 41.2986 155.387 42.5473L153.197 54.9226C152.348 59.7272 150.273 60.6821 146.21 60.6821H138.586L137.95 57.0748H145.225C147.976 57.0748 148.507 56.8702 149.014 53.7631L149.256 52.3839H144.179C139.693 52.3839 137.821 51.1486 137.821 47.7611C137.873 46.4877 138.027 45.2205 138.283 43.972L138.814 41.0392C139.837 35.3933 141.14 34.1202 147.036 34.1202H149.468C153.978 34.1354 155.85 35.3707 155.85 38.7581ZM149.916 48.8221L151.008 42.5018C151.233 41.505 151.376 40.491 151.432 39.4704C151.432 37.9548 150.674 37.6744 148.401 37.6744H146.816C144.134 37.6744 143.709 38.4853 143.247 41.0619L142.717 43.9948C142.504 44.994 142.363 46.0069 142.292 47.026C142.292 48.5417 143.05 48.8297 145.369 48.8297L149.916 48.8221Z"
    fill="#FFFBFB" />
  <path
    d="M176 37.9852C175.92 39.4322 175.73 40.8712 175.433 42.2896L173.318 54.4149H168.937L171.09 42.2896C171.282 41.3708 171.402 40.4383 171.446 39.5008C171.446 38.2656 170.916 37.9852 169.256 37.9852H164.103L161.246 54.3694H156.873L160.367 34.3551H170.089C174.584 34.3855 176 35.4388 176 37.9852Z"
    fill="#FFFBFB" />
  <path
    d="M27.4433 54.3694H21.2973C21.1955 54.3693 21.0949 54.3474 21.0023 54.3051C20.9097 54.2629 20.8272 54.2012 20.7604 54.1244C20.6936 54.0475 20.6441 53.9572 20.6151 53.8596C20.5861 53.762 20.5785 53.6593 20.5925 53.5586L21.7899 46.7987H29.3682L28.1329 53.8011C28.1001 53.9603 28.0138 54.1034 27.8883 54.2068C27.7629 54.3102 27.6059 54.3676 27.4433 54.3694Z"
    fill="#009BFF" />
  <path
    d="M44.7446 31.5815H24.4651L25.7989 24.0032H45.8055C45.9152 23.9927 46.0256 24.0081 46.1282 24.048C46.2308 24.0879 46.3225 24.1513 46.3962 24.233C46.4699 24.3148 46.5233 24.4127 46.5524 24.5189C46.5815 24.625 46.5851 24.7365 46.5634 24.8444L45.4418 31.0131C45.4114 31.1749 45.3247 31.3207 45.1971 31.4248C45.0695 31.5288 44.9092 31.5843 44.7446 31.5815Z"
    fill="url(#paint0_linear_611_71)" />
  <path
    d="M24.465 31.5817H17.7203C17.6171 31.5828 17.5149 31.5615 17.4208 31.5193C17.3266 31.4771 17.2428 31.4149 17.175 31.3371C17.1073 31.2592 17.0572 31.1676 17.0284 31.0685C16.9996 30.9694 16.9926 30.8653 17.008 30.7632L18.1068 24.5869C18.1368 24.4236 18.2229 24.276 18.3502 24.1695C18.4775 24.0629 18.638 24.0042 18.804 24.0034H25.7988L24.465 31.5817Z"
    fill="#0064FF" />
  <path d="M29.3757 46.7759H21.7822L24.4649 31.5966H32.0583L29.3757 46.7759Z" fill="url(#paint1_linear_611_71)" />
  <path d="M130.088 94.4375L125 103.169L119.913 94.4375H103L125 132.25L147 94.4375H130.088Z" fill="#42B883" />
  <path d="M130.088 94.4375L125 103.169L119.913 94.4375H111.8L125 117.125L138.2 94.4375H130.088Z" fill="#35495E" />
  <path
    d="M156.248 120.9C155.444 120.9 154.778 120.822 154.25 120.666C153.722 120.51 153.326 120.234 153.062 119.838C152.798 119.442 152.666 118.902 152.666 118.218C152.666 117.654 152.75 116.916 152.918 116.004L153.854 110.784C153.974 110.088 154.13 109.518 154.322 109.074C154.514 108.618 154.754 108.264 155.042 108.012C155.342 107.748 155.714 107.562 156.158 107.454C156.614 107.334 157.172 107.274 157.832 107.274H162.332L161.504 109.272H158.12C157.676 109.272 157.328 109.338 157.076 109.47C156.836 109.59 156.644 109.8 156.5 110.1C156.368 110.4 156.236 110.91 156.104 111.63L155.456 115.23C155.216 116.514 155.096 117.36 155.096 117.768C155.096 117.996 155.144 118.206 155.24 118.398C155.348 118.578 155.558 118.71 155.87 118.794C156.194 118.866 156.65 118.902 157.238 118.902H160.586L159.74 120.9H156.248ZM165.712 121.026C164.56 121.026 163.732 120.846 163.228 120.486C162.724 120.126 162.472 119.52 162.472 118.668C162.472 118.272 162.55 117.63 162.706 116.742L163.174 114.096C163.306 113.352 163.456 112.758 163.624 112.314C163.804 111.858 164.044 111.504 164.344 111.252C164.644 111 165.034 110.826 165.514 110.73C165.994 110.622 166.618 110.568 167.386 110.568H168.628C169.78 110.568 170.608 110.748 171.112 111.108C171.616 111.468 171.868 112.074 171.868 112.926C171.868 113.322 171.79 113.964 171.634 114.852L171.166 117.498C171.034 118.242 170.878 118.842 170.698 119.298C170.53 119.742 170.296 120.09 169.996 120.342C169.696 120.594 169.306 120.768 168.826 120.864C168.346 120.972 167.722 121.026 166.954 121.026H165.712ZM166.288 119.208H167.098C167.434 119.208 167.722 119.178 167.962 119.118C168.202 119.046 168.394 118.908 168.538 118.704C168.694 118.5 168.826 118.092 168.934 117.48L169.402 114.834C169.546 114.054 169.618 113.538 169.618 113.286C169.618 112.914 169.504 112.668 169.276 112.548C169.06 112.428 168.652 112.368 168.052 112.368H167.242C166.906 112.368 166.618 112.404 166.378 112.476C166.138 112.536 165.94 112.668 165.784 112.872C165.64 113.076 165.514 113.484 165.406 114.096L164.938 116.742C164.794 117.51 164.722 118.026 164.722 118.29C164.722 118.662 164.83 118.908 165.046 119.028C165.274 119.148 165.688 119.208 166.288 119.208ZM185.237 110.694C185.945 110.694 186.515 110.748 186.947 110.856C187.379 110.964 187.703 111.15 187.919 111.414C188.147 111.666 188.261 112.038 188.261 112.53C188.261 112.614 188.249 112.782 188.225 113.034C188.213 113.274 188.129 113.838 187.973 114.726L186.893 120.9H184.661L185.759 114.726C185.879 114.054 185.939 113.58 185.939 113.304C185.939 113.004 185.861 112.806 185.705 112.71C185.549 112.602 185.255 112.548 184.823 112.548H182.393L180.935 120.9H178.703L180.161 112.548H176.705L175.247 120.9H173.015L174.797 110.694H185.237ZM195.998 110.694C197.15 110.694 197.978 110.874 198.482 111.234C198.986 111.594 199.238 112.2 199.238 113.052C199.238 113.448 199.16 114.09 199.004 114.978L198.572 117.39C198.38 118.494 198.128 119.274 197.816 119.73C197.516 120.186 197.102 120.498 196.574 120.666C196.058 120.834 195.326 120.918 194.378 120.918H191.858L191.3 124.104H189.068L191.444 110.694H195.998ZM196.772 114.978C196.904 114.27 196.97 113.754 196.97 113.43C196.97 113.058 196.856 112.812 196.628 112.692C196.412 112.572 196.004 112.512 195.404 112.512H193.352L192.182 119.1H194.504C195.128 119.1 195.56 118.992 195.8 118.776C196.04 118.548 196.22 118.086 196.34 117.39L196.772 114.978ZM203.803 121.026C202.651 121.026 201.823 120.846 201.319 120.486C200.815 120.126 200.563 119.52 200.563 118.668C200.563 118.272 200.641 117.63 200.797 116.742L201.265 114.096C201.397 113.352 201.547 112.758 201.715 112.314C201.895 111.858 202.135 111.504 202.435 111.252C202.735 111 203.125 110.826 203.605 110.73C204.085 110.622 204.709 110.568 205.477 110.568H206.719C207.871 110.568 208.699 110.748 209.203 111.108C209.707 111.468 209.959 112.074 209.959 112.926C209.959 113.322 209.881 113.964 209.725 114.852L209.257 117.498C209.125 118.242 208.969 118.842 208.789 119.298C208.621 119.742 208.387 120.09 208.087 120.342C207.787 120.594 207.397 120.768 206.917 120.864C206.437 120.972 205.813 121.026 205.045 121.026H203.803ZM204.379 119.208H205.189C205.525 119.208 205.813 119.178 206.053 119.118C206.293 119.046 206.485 118.908 206.629 118.704C206.785 118.5 206.917 118.092 207.025 117.48L207.493 114.834C207.637 114.054 207.709 113.538 207.709 113.286C207.709 112.914 207.595 112.668 207.367 112.548C207.151 112.428 206.743 112.368 206.143 112.368H205.333C204.997 112.368 204.709 112.404 204.469 112.476C204.229 112.536 204.031 112.668 203.875 112.872C203.731 113.076 203.605 113.484 203.497 114.096L203.029 116.742C202.885 117.51 202.813 118.026 202.813 118.29C202.813 118.662 202.921 118.908 203.137 119.028C203.365 119.148 203.779 119.208 204.379 119.208ZM211.503 120.9L211.179 119.082H215.445C215.793 119.082 216.021 119.034 216.129 118.938C216.249 118.842 216.339 118.62 216.399 118.272L216.561 117.318C216.597 117.138 216.615 117 216.615 116.904C216.615 116.856 216.597 116.802 216.561 116.742C216.525 116.67 216.363 116.634 216.075 116.634H214.005C213.225 116.634 212.679 116.538 212.367 116.346C212.055 116.154 211.899 115.806 211.899 115.302C211.899 114.966 211.959 114.468 212.079 113.808L212.223 112.998C212.319 112.47 212.421 112.074 212.529 111.81C212.637 111.546 212.775 111.336 212.943 111.18C213.111 111.012 213.351 110.892 213.663 110.82C213.975 110.736 214.473 110.694 215.157 110.694H219.711L218.955 112.512H215.157C214.809 112.512 214.575 112.56 214.455 112.656C214.347 112.752 214.263 112.974 214.203 113.322L214.059 114.132C214.023 114.312 214.005 114.45 214.005 114.546C214.005 114.594 214.023 114.654 214.059 114.726C214.095 114.786 214.257 114.816 214.545 114.816H216.705C217.485 114.816 218.031 114.912 218.343 115.104C218.655 115.296 218.811 115.644 218.811 116.148C218.811 116.484 218.751 116.982 218.631 117.642L218.433 118.776C218.349 119.256 218.241 119.634 218.109 119.91C217.989 120.186 217.833 120.384 217.641 120.504C217.461 120.636 217.227 120.732 216.939 120.792C216.651 120.864 216.153 120.9 215.445 120.9H211.503ZM222.562 109.02L222.976 106.716H225.28L224.866 109.02H222.562ZM220.528 120.9L222.31 110.694H224.542L222.76 120.9H220.528ZM229.607 112.512L228.797 117.102C228.689 117.69 228.635 118.104 228.635 118.344C228.635 118.596 228.701 118.776 228.833 118.884C228.965 118.98 229.151 119.04 229.391 119.064C229.643 119.076 229.931 119.082 230.255 119.082H231.479L230.705 120.9H229.391C228.755 120.9 228.239 120.846 227.843 120.738C227.459 120.63 227.159 120.48 226.943 120.288C226.727 120.096 226.577 119.868 226.493 119.604C226.409 119.34 226.367 119.064 226.367 118.776C226.367 118.368 226.433 117.81 226.565 117.102L227.375 112.512H226.043L226.349 110.694H227.699L228.239 107.67H230.471L229.931 110.694H232.793L232.469 112.512H229.607ZM235.148 109.02L235.562 106.716H237.866L237.452 109.02H235.148ZM233.114 120.9L234.896 110.694H237.128L235.346 120.9H233.114ZM241.491 121.026C240.339 121.026 239.511 120.846 239.007 120.486C238.503 120.126 238.251 119.52 238.251 118.668C238.251 118.272 238.329 117.63 238.485 116.742L238.953 114.096C239.085 113.352 239.235 112.758 239.403 112.314C239.583 111.858 239.823 111.504 240.123 111.252C240.423 111 240.813 110.826 241.293 110.73C241.773 110.622 242.397 110.568 243.165 110.568H244.407C245.559 110.568 246.387 110.748 246.891 111.108C247.395 111.468 247.647 112.074 247.647 112.926C247.647 113.322 247.569 113.964 247.413 114.852L246.945 117.498C246.813 118.242 246.657 118.842 246.477 119.298C246.309 119.742 246.075 120.09 245.775 120.342C245.475 120.594 245.085 120.768 244.605 120.864C244.125 120.972 243.501 121.026 242.733 121.026H241.491ZM242.067 119.208H242.877C243.213 119.208 243.501 119.178 243.741 119.118C243.981 119.046 244.173 118.908 244.317 118.704C244.473 118.5 244.605 118.092 244.713 117.48L245.181 114.834C245.325 114.054 245.397 113.538 245.397 113.286C245.397 112.914 245.283 112.668 245.055 112.548C244.839 112.428 244.431 112.368 243.831 112.368H243.021C242.685 112.368 242.397 112.404 242.157 112.476C241.917 112.536 241.719 112.668 241.563 112.872C241.419 113.076 241.293 113.484 241.185 114.096L240.717 116.742C240.573 117.51 240.501 118.026 240.501 118.29C240.501 118.662 240.609 118.908 240.825 119.028C241.053 119.148 241.467 119.208 242.067 119.208ZM255.526 110.694C256.234 110.694 256.804 110.748 257.236 110.856C257.668 110.964 257.992 111.15 258.208 111.414C258.436 111.666 258.55 112.038 258.55 112.53C258.55 112.614 258.538 112.782 258.514 113.034C258.502 113.274 258.418 113.838 258.262 114.726L257.182 120.9H254.95L256.048 114.726C256.168 114.054 256.228 113.58 256.228 113.304C256.228 113.004 256.15 112.806 255.994 112.71C255.838 112.602 255.544 112.548 255.112 112.548H252.484L251.026 120.9H248.794L250.576 110.694H255.526ZM267.248 107.166C268.172 107.166 268.922 107.25 269.498 107.418C270.086 107.586 270.512 107.874 270.776 108.282C271.052 108.69 271.19 109.248 271.19 109.956C271.19 110.592 271.1 111.408 270.92 112.404L269.426 120.9H266.996L267.914 115.716H263.036L262.118 120.9H259.742L261.47 111.198C261.59 110.526 261.722 109.962 261.866 109.506C262.022 109.05 262.202 108.678 262.406 108.39C262.622 108.09 262.886 107.856 263.198 107.688C263.522 107.508 263.936 107.376 264.44 107.292C264.956 107.208 265.7 107.166 266.672 107.166H267.248ZM263.378 113.754H268.256L268.508 112.368C268.676 111.42 268.76 110.754 268.76 110.37C268.76 109.998 268.694 109.734 268.562 109.578C268.43 109.41 268.232 109.302 267.968 109.254C267.716 109.194 267.356 109.164 266.888 109.164H266.42C265.772 109.164 265.28 109.224 264.944 109.344C264.62 109.452 264.374 109.656 264.206 109.956C264.038 110.256 263.888 110.802 263.756 111.594L263.378 113.754ZM280.42 107.274C280.78 107.274 281.128 107.292 281.464 107.328C281.812 107.364 282.112 107.436 282.364 107.544C282.616 107.652 282.82 107.82 282.976 108.048C283.132 108.264 283.21 108.582 283.21 109.002C283.21 109.386 283.126 110.07 282.958 111.054L282.652 112.764C282.532 113.46 282.376 114.036 282.184 114.492C281.992 114.948 281.746 115.308 281.446 115.572C281.146 115.836 280.768 116.028 280.312 116.148C279.856 116.256 279.298 116.31 278.638 116.31H275.236L274.426 120.9H272.014L274.408 107.274H280.42ZM280.546 111.054C280.654 110.454 280.708 110.058 280.708 109.866C280.708 109.602 280.612 109.428 280.42 109.344C280.228 109.248 279.874 109.2 279.358 109.2H276.478L275.578 114.384H278.35C278.794 114.384 279.142 114.324 279.394 114.204C279.646 114.072 279.844 113.856 279.988 113.556C280.132 113.244 280.264 112.728 280.384 112.008L280.546 111.054ZM283.424 120.9L285.836 107.274H288.248L285.854 120.9H283.424Z"
    fill="#42B883" />
  <defs>
    <linearGradient id="paint0_linear_611_71" x1="25.1155" y1="27.7999" x2="45.3385" y2="31.4401"
      gradientUnits="userSpaceOnUse">
      <stop offset="0.03" stop-color="#E9FFFF" />
      <stop offset="0.17" stop-color="#C4FAC9" />
      <stop offset="0.33" stop-color="#A0F694" />
      <stop offset="0.48" stop-color="#82F269" />
      <stop offset="0.63" stop-color="#6AEF47" />
      <stop offset="0.76" stop-color="#5AED2F" />
      <stop offset="0.89" stop-color="#4FEB20" />
      <stop offset="1" stop-color="#4CEB1B" />
    </linearGradient>
    <linearGradient id="paint1_linear_611_71" x1="28.2524" y1="31.0434" x2="28.3959" y2="45.3254"
      gradientUnits="userSpaceOnUse">
      <stop stop-color="#009BFF" />
      <stop offset="0.35" stop-color="#0081FE" />
      <stop offset="0.75" stop-color="#006AFD" />
      <stop offset="1" stop-color="#0062FD" />
    </linearGradient>
  </defs>
</svg>