<svg width="300" height="150" viewBox="0 0 300 150" fill="none" xmlns="http://www.w3.org/2000/svg">
  <rect width="300" height="150" fill="black" />
  <path
    d="M81.2689 45.5815H74.7743L70.7199 68.3997H65.9835L70.0075 45.5815H63.4827L64.1875 41.6635H81.9737L81.2689 45.5815Z"
    fill="#FFFBFB" />
  <path
    d="M102.549 48.4158C102.533 49.942 102.381 51.4636 102.094 52.9628L101.336 57.4491C99.7295 66.5961 97.2438 68.3997 90.1657 68.3997H79.2908L83.9894 41.6787H93.2728C100.01 41.6787 102.549 43.3686 102.549 48.4158ZM97.8197 49.1282C97.8197 46.0968 96.3723 45.5966 92.5604 45.5966H88.0134L84.7244 64.4817H89.2108C94.5156 64.4817 95.5993 63.4208 96.6224 57.4567L97.3802 52.9704C97.6358 51.7044 97.7829 50.419 97.8197 49.1282Z"
    fill="#FFFBFB" />
  <path
    d="M120.623 52.0912C120.621 52.6123 120.573 53.1323 120.479 53.6448L119.979 56.4336C119.418 59.5711 118.251 60.6698 115.318 60.6698H107.565L107.383 61.7611C107.286 62.261 107.228 62.7678 107.209 63.2767C107.209 64.512 107.846 64.7925 109.892 64.7925H116.985L115.538 68.3618H109.043C104.496 68.3618 102.836 67.1948 102.836 64.3378C102.854 63.5093 102.935 62.6834 103.079 61.8672L104.458 53.9556C105.307 49.0902 107.353 48.0975 112.537 48.0975H114.939C118.645 48.1354 120.623 49.1282 120.623 52.0912ZM116.212 52.7279C116.212 51.8791 115.682 51.6669 114.06 51.6669H111.551C109.93 51.6669 109.149 51.8791 108.763 53.9934L108.202 57.2445H114.196C114.385 57.2742 114.577 57.2626 114.761 57.2102C114.945 57.1578 115.114 57.0659 115.259 56.9411C115.403 56.8162 115.518 56.6614 115.597 56.4873C115.675 56.3133 115.714 56.1243 115.712 55.9334L116.098 53.66C116.153 53.3521 116.184 53.0405 116.189 52.7279H116.212Z"
    fill="#FFFBFB" />
  <path
    d="M120.865 64.8304H129.202C130.581 64.8304 130.831 64.6181 131.073 63.2465L131.392 61.3747C131.45 61.1078 131.485 60.8366 131.498 60.5639C131.498 60.1015 131.248 60.0333 130.437 60.0333H126.382C123.275 60.0333 122.252 59.4346 122.252 57.4188C122.285 56.4357 122.402 55.457 122.601 54.4936L122.889 52.9021C123.594 48.8401 124.647 48.3551 128.641 48.3551H137.568L136.052 51.917H128.611C127.231 51.917 126.981 52.1292 126.739 53.5084L126.458 55.0923C126.397 55.3585 126.361 55.6301 126.352 55.9031C126.352 56.3655 126.595 56.4336 127.406 56.4336H131.642C134.749 56.4336 135.772 57.0323 135.772 59.0481C135.738 60.0338 135.622 61.0149 135.423 61.981L135.029 64.2014C134.4 67.8692 133.339 68.3694 129.171 68.3694H121.494L120.865 64.8304Z"
    fill="#FFFBFB" />
  <path
    d="M141.266 48.3855H145.646L142.153 68.3997H137.772L141.266 48.3855ZM142.577 40.5874H147.124L146.313 45.1344H141.766L142.577 40.5874Z"
    fill="#FFFBFB" />
  <path
    d="M164.85 52.7581C164.797 54.0315 164.643 55.2986 164.387 56.5473L162.197 68.9226C161.348 73.7272 159.273 74.6821 155.21 74.6821H147.586L146.95 71.0748H154.225C156.976 71.0748 157.507 70.8702 158.014 67.7631L158.256 66.3839H153.179C148.693 66.3839 146.821 65.1486 146.821 61.7611C146.873 60.4877 147.027 59.2205 147.283 57.972L147.814 55.0392C148.837 49.3933 150.14 48.1202 156.036 48.1202H158.468C162.978 48.1354 164.85 49.3707 164.85 52.7581ZM158.916 62.8221L160.008 56.5018C160.233 55.505 160.376 54.491 160.432 53.4704C160.432 51.9548 159.674 51.6744 157.401 51.6744H155.816C153.134 51.6744 152.709 52.4853 152.247 55.0619L151.717 57.9948C151.504 58.994 151.363 60.0069 151.292 61.026C151.292 62.5417 152.05 62.8297 154.369 62.8297L158.916 62.8221Z"
    fill="#FFFBFB" />
  <path
    d="M185 51.9852C184.92 53.4322 184.73 54.8712 184.433 56.2896L182.318 68.4149H177.937L180.09 56.2896C180.282 55.3708 180.402 54.4383 180.446 53.5008C180.446 52.2656 179.916 51.9852 178.256 51.9852H173.103L170.246 68.3694H165.873L169.367 48.3551H179.089C183.584 48.3855 185 49.4388 185 51.9852Z"
    fill="#FFFBFB" />
  <path
    d="M36.4433 68.3694H30.2973C30.1955 68.3693 30.0949 68.3474 30.0023 68.3051C29.9097 68.2629 29.8272 68.2012 29.7604 68.1244C29.6936 68.0475 29.6441 67.9572 29.6151 67.8596C29.5861 67.762 29.5785 67.6593 29.5925 67.5586L30.7899 60.7987H38.3682L37.1329 67.8011C37.1001 67.9603 37.0138 68.1034 36.8883 68.2068C36.7629 68.3102 36.6059 68.3676 36.4433 68.3694Z"
    fill="#009BFF" />
  <path
    d="M53.7446 45.5815H33.4651L34.7989 38.0032H54.8055C54.9152 37.9927 55.0256 38.0081 55.1282 38.048C55.2308 38.0879 55.3225 38.1513 55.3962 38.233C55.4699 38.3148 55.5233 38.4127 55.5524 38.5189C55.5815 38.625 55.5851 38.7365 55.5634 38.8444L54.4418 45.0131C54.4114 45.1749 54.3247 45.3207 54.1971 45.4248C54.0695 45.5288 53.9092 45.5843 53.7446 45.5815Z"
    fill="url(#paint0_linear_611_2)" />
  <path
    d="M33.465 45.5817H26.7203C26.6171 45.5828 26.5149 45.5615 26.4208 45.5193C26.3266 45.4771 26.2428 45.4149 26.175 45.3371C26.1073 45.2592 26.0572 45.1676 26.0284 45.0685C25.9996 44.9694 25.9926 44.8653 26.008 44.7632L27.1068 38.5869C27.1368 38.4236 27.2229 38.276 27.3502 38.1695C27.4775 38.0629 27.638 38.0042 27.804 38.0034H34.7988L33.465 45.5817Z"
    fill="#0064FF" />
  <path d="M38.3757 60.7759H30.7822L33.4649 45.5966H41.0583L38.3757 60.7759Z" fill="url(#paint1_linear_611_2)" />
  <path
    d="M172.552 117.6C171.123 117.6 169.939 117.461 169 117.184C168.061 116.907 167.357 116.416 166.888 115.712C166.419 115.008 166.184 114.048 166.184 112.832C166.184 111.829 166.333 110.517 166.632 108.896L168.296 99.616C168.509 98.3787 168.787 97.3653 169.128 96.576C169.469 95.7653 169.896 95.136 170.408 94.688C170.941 94.2187 171.603 93.888 172.392 93.696C173.203 93.4827 174.195 93.376 175.368 93.376H183.368L181.896 96.928H175.88C175.091 96.928 174.472 97.0453 174.024 97.28C173.597 97.4933 173.256 97.8667 173 98.4C172.765 98.9333 172.531 99.84 172.296 101.12L171.144 107.52C170.717 109.803 170.504 111.307 170.504 112.032C170.504 112.437 170.589 112.811 170.76 113.152C170.952 113.472 171.325 113.707 171.88 113.856C172.456 113.984 173.267 114.048 174.312 114.048H180.264L178.76 117.6H172.552ZM197.35 99.456H201.318L198.118 117.6H189.126C187.868 117.6 186.854 117.504 186.086 117.312C185.318 117.12 184.732 116.789 184.326 116.32C183.942 115.872 183.75 115.211 183.75 114.336C183.75 114.187 183.761 113.899 183.782 113.472C183.825 113.024 183.985 112.011 184.262 110.432L186.182 99.456H190.15L188.198 110.432C187.985 111.627 187.878 112.469 187.878 112.96C187.878 113.493 188.017 113.856 188.294 114.048C188.572 114.219 189.094 114.304 189.862 114.304H194.726L197.35 99.456ZM203.784 117.6L203.208 114.368H210.792C211.41 114.368 211.816 114.283 212.008 114.112C212.221 113.941 212.381 113.547 212.488 112.928L212.776 111.232C212.84 110.912 212.872 110.667 212.872 110.496C212.872 110.411 212.84 110.315 212.776 110.208C212.712 110.08 212.424 110.016 211.912 110.016H208.232C206.845 110.016 205.874 109.845 205.32 109.504C204.765 109.163 204.488 108.544 204.488 107.648C204.488 107.051 204.594 106.165 204.808 104.992L205.064 103.552C205.234 102.613 205.416 101.909 205.608 101.44C205.8 100.971 206.045 100.597 206.344 100.32C206.642 100.021 207.069 99.808 207.624 99.68C208.178 99.5307 209.064 99.456 210.28 99.456H218.376L217.032 102.688H210.28C209.661 102.688 209.245 102.773 209.032 102.944C208.84 103.115 208.69 103.509 208.584 104.128L208.328 105.568C208.264 105.888 208.232 106.133 208.232 106.304C208.232 106.389 208.264 106.496 208.328 106.624C208.392 106.731 208.68 106.784 209.192 106.784H213.032C214.418 106.784 215.389 106.955 215.944 107.296C216.498 107.637 216.776 108.256 216.776 109.152C216.776 109.749 216.669 110.635 216.456 111.808L216.104 113.824C215.954 114.677 215.762 115.349 215.528 115.84C215.314 116.331 215.037 116.683 214.696 116.896C214.376 117.131 213.96 117.301 213.448 117.408C212.936 117.536 212.05 117.6 210.792 117.6H203.784ZM227.062 102.688L225.623 110.848C225.431 111.893 225.335 112.629 225.335 113.056C225.335 113.504 225.452 113.824 225.687 114.016C225.921 114.187 226.252 114.293 226.679 114.336C227.127 114.357 227.639 114.368 228.215 114.368H230.391L229.015 117.6H226.679C225.548 117.6 224.631 117.504 223.927 117.312C223.244 117.12 222.711 116.853 222.327 116.512C221.943 116.171 221.676 115.765 221.527 115.296C221.377 114.827 221.303 114.336 221.303 113.824C221.303 113.099 221.42 112.107 221.655 110.848L223.095 102.688H220.727L221.271 99.456H223.671L224.631 94.08H228.599L227.639 99.456H232.727L232.151 102.688H227.062ZM239.345 117.824C237.297 117.824 235.825 117.504 234.929 116.864C234.033 116.224 233.585 115.147 233.585 113.632C233.585 112.928 233.724 111.787 234.001 110.208L234.833 105.504C235.068 104.181 235.334 103.125 235.633 102.336C235.953 101.525 236.38 100.896 236.913 100.448C237.446 100 238.14 99.6907 238.993 99.52C239.846 99.328 240.956 99.232 242.321 99.232H244.529C246.577 99.232 248.049 99.552 248.945 100.192C249.841 100.832 250.289 101.909 250.289 103.424C250.289 104.128 250.15 105.269 249.873 106.848L249.041 111.552C248.806 112.875 248.529 113.941 248.209 114.752C247.91 115.541 247.494 116.16 246.961 116.608C246.428 117.056 245.734 117.365 244.881 117.536C244.028 117.728 242.918 117.824 241.553 117.824H239.345ZM240.369 114.592H241.809C242.406 114.592 242.918 114.539 243.345 114.432C243.772 114.304 244.113 114.059 244.369 113.696C244.646 113.333 244.881 112.608 245.073 111.52L245.905 106.816C246.161 105.429 246.289 104.512 246.289 104.064C246.289 103.403 246.086 102.965 245.681 102.752C245.297 102.539 244.572 102.432 243.505 102.432H242.065C241.468 102.432 240.956 102.496 240.529 102.624C240.102 102.731 239.75 102.965 239.473 103.328C239.217 103.691 238.993 104.416 238.801 105.504L237.969 110.208C237.713 111.573 237.585 112.491 237.585 112.96C237.585 113.621 237.777 114.059 238.161 114.272C238.566 114.485 239.302 114.592 240.369 114.592ZM274.056 99.456C275.315 99.456 276.328 99.552 277.096 99.744C277.864 99.936 278.44 100.267 278.824 100.736C279.23 101.184 279.432 101.845 279.432 102.72C279.432 102.869 279.411 103.168 279.368 103.616C279.347 104.043 279.198 105.045 278.92 106.624L277 117.6H273.032L274.984 106.624C275.198 105.429 275.304 104.587 275.304 104.096C275.304 103.563 275.166 103.211 274.888 103.04C274.611 102.848 274.088 102.752 273.32 102.752H269L266.408 117.6H262.44L265.032 102.752H258.888L256.296 117.6H252.328L255.496 99.456H274.056Z"
    fill="#DAFDE9" />
  <defs>
    <linearGradient id="paint0_linear_611_2" x1="34.1155" y1="41.7999" x2="54.3385" y2="45.4401"
      gradientUnits="userSpaceOnUse">
      <stop offset="0.03" stop-color="#E9FFFF" />
      <stop offset="0.17" stop-color="#C4FAC9" />
      <stop offset="0.33" stop-color="#A0F694" />
      <stop offset="0.48" stop-color="#82F269" />
      <stop offset="0.63" stop-color="#6AEF47" />
      <stop offset="0.76" stop-color="#5AED2F" />
      <stop offset="0.89" stop-color="#4FEB20" />
      <stop offset="1" stop-color="#4CEB1B" />
    </linearGradient>
    <linearGradient id="paint1_linear_611_2" x1="37.2524" y1="45.0434" x2="37.3959" y2="59.3254"
      gradientUnits="userSpaceOnUse">
      <stop stop-color="#009BFF" />
      <stop offset="0.35" stop-color="#0081FE" />
      <stop offset="0.75" stop-color="#006AFD" />
      <stop offset="1" stop-color="#0062FD" />
    </linearGradient>
  </defs>
</svg>