<svg width="300" height="150" viewBox="0 0 300 150" fill="none" xmlns="http://www.w3.org/2000/svg">
  <rect width="300" height="150" fill="black" />
  <g clip-path="url(#clip0_604_10)">
    <path
      d="M97.0793 63.34C97.1076 61.8266 97.2785 60.3192 97.5897 58.8379L99.4897 48.2307C100.479 42.6286 102.269 41.0964 107.569 41.0964H116.707L115.027 45.1507H108.157C105.229 45.1507 104.719 46.3214 104.059 49.9436L102.748 57.2664C102.377 58.9642 102.13 60.6869 102.01 62.4207C102.01 64.4007 103.29 64.7307 106.367 64.7307H113.167L111.447 68.785H104.381C99.2384 68.785 97.0793 67.3943 97.0793 63.34Z"
      fill="#F9FBFF" />
    <path
      d="M115.538 64.2514C115.591 62.9311 115.751 61.6173 116.017 60.3229L116.967 54.9407C117.987 49.0871 119.416 47.775 125.517 47.775H128.037C132.677 47.775 134.616 49.0557 134.616 52.5679C134.562 53.8881 134.402 55.2019 134.137 56.4964L133.195 61.8943C132.174 67.7479 130.745 69.0679 124.645 69.0679H122.117C117.477 69.0443 115.538 67.7636 115.538 64.2514ZM124.959 65.3514C127.738 65.3514 128.209 64.5107 128.688 61.8393L129.607 56.4571C129.837 55.423 129.984 54.372 130.047 53.3143C130.047 51.7429 129.262 51.4443 126.867 51.4443H125.218C122.439 51.4443 121.968 52.285 121.489 54.9564L120.547 60.3229C120.316 61.357 120.169 62.408 120.107 63.4657C120.107 65.0371 120.892 65.3357 123.287 65.3357L124.959 65.3514Z"
      fill="#F9FBFF" />
    <path
      d="M159.552 48.0814C159.534 49.6637 159.377 51.2414 159.081 52.7957L158.296 57.4393C156.655 66.915 154.056 68.7771 146.746 68.7771H135.464L140.324 41.0886H149.942C156.922 41.0964 159.552 42.8486 159.552 48.0814ZM154.653 48.8121C154.653 45.6693 153.161 45.1507 149.212 45.1507H144.501L141.101 64.7307H145.741C151.237 64.7307 152.36 63.6307 153.42 57.4471L154.205 52.8036C154.463 51.4876 154.613 50.1526 154.653 48.8121Z"
      fill="#F9FBFF" />
    <path
      d="M178.285 51.8843C178.284 52.4113 178.236 52.9371 178.143 53.4557L177.617 56.3943C177.029 59.6471 175.82 60.7864 172.789 60.7864H164.749L164.561 61.8943C164.46 62.4127 164.4 62.938 164.38 63.4657C164.38 64.7464 165.04 65.0371 167.16 65.0371H174.508L173.009 68.73H166.28C161.57 68.73 159.85 67.5279 159.85 64.5657C159.868 63.7068 159.952 62.8505 160.101 62.0043L161.53 53.8093C162.41 48.7571 164.529 47.7357 169.9 47.7357H172.389C176.228 47.7907 178.285 48.8121 178.285 51.8843ZM173.715 52.5443C173.715 51.6643 173.174 51.4443 171.486 51.4443H168.863C167.183 51.4443 166.374 51.6643 165.974 53.8643L165.385 57.2271H171.603C171.798 57.2594 171.998 57.2484 172.188 57.1951C172.378 57.1417 172.554 57.0473 172.703 56.9184C172.853 56.7896 172.973 56.6295 173.054 56.4493C173.135 56.2691 173.176 56.0733 173.174 55.8757L173.574 53.5186C173.646 53.1986 173.688 52.8723 173.7 52.5443H173.715Z"
      fill="#F9FBFF" />
    <path
      d="M178.528 65.0921H187.165C188.594 65.0921 188.853 64.8721 189.104 63.45L189.434 61.5093C189.497 61.2333 189.534 60.9517 189.544 60.6686C189.544 60.1893 189.292 60.1186 188.452 60.1186H184.244C181.025 60.1186 179.965 59.4979 179.965 57.4079C180.003 56.3883 180.126 55.3738 180.334 54.375L180.625 52.725C181.355 48.5214 182.454 48.0107 186.584 48.0107H195.832L194.262 51.7114H186.607C185.178 51.7114 184.927 51.9236 184.668 53.3536L184.377 55.0036C184.316 55.2801 184.279 55.5614 184.268 55.8443C184.268 56.3157 184.527 56.3943 185.367 56.3943H189.748C192.967 56.3943 194.027 57.015 194.027 59.0971C193.992 60.1191 193.871 61.1364 193.666 62.1379L193.257 64.44C192.606 68.2429 191.506 68.7536 187.188 68.7536H179.188L178.528 65.0921Z"
      fill="#F9FBFF" />
    <path
      d="M199.656 48.0422H204.194L200.575 68.785H196.037L199.656 48.0422ZM201.054 39.9572H205.764L204.924 44.6714H200.213L201.054 39.9572Z"
      fill="#F9FBFF" />
    <path
      d="M224.081 52.5836C224.027 53.9038 223.867 55.2176 223.602 56.5121L221.333 69.3507C220.462 74.3321 218.303 75.3143 214.102 75.3143H206.204L205.544 71.5821H213.074C215.924 71.5821 216.473 71.3621 216.999 68.1486L217.258 66.7186H212.045C207.405 66.7186 205.466 65.4379 205.466 61.9257C205.519 60.6054 205.679 59.2916 205.945 57.9971L206.486 54.9564C207.546 49.1029 208.905 47.7907 215.005 47.7907H217.541C222.142 47.7907 224.081 49.0714 224.081 52.5836ZM217.934 63.01L219.111 56.4571C219.341 55.423 219.488 54.372 219.551 53.3143C219.551 51.7429 218.766 51.4443 216.371 51.4443H214.722C211.943 51.4443 211.503 52.285 211.032 54.9564L210.475 57.9657C210.251 59.001 210.104 60.0515 210.035 61.1086C210.035 62.68 210.82 62.9786 213.215 62.9786L217.934 63.01Z"
      fill="#F9FBFF" />
    <path
      d="M244.95 51.7743C244.866 53.2741 244.671 54.7658 244.369 56.2371L242.178 68.8086H237.64L239.87 56.2371C240.069 55.2847 240.193 54.3178 240.239 53.3457C240.239 52.065 239.689 51.7743 237.97 51.7743H232.631L229.671 68.7457H225.141L228.761 48.0028H238.81C243.489 48.0421 244.95 49.1421 244.95 51.7743Z"
      fill="#F9FBFF" />
    <path
      d="M84.3131 68.7614H62.2119C62.1047 68.7607 61.999 68.7367 61.9021 68.6909C61.8052 68.6453 61.7194 68.579 61.6507 68.4967C61.5819 68.4145 61.5319 68.3183 61.5041 68.2147C61.4763 68.1112 61.4713 68.0028 61.4895 67.8971L62.7222 60.8886H85.4358C85.5436 60.8882 85.6502 60.9113 85.7481 60.9566C85.8459 61.0018 85.9327 61.0679 86.0023 61.1503C86.0719 61.2327 86.1227 61.3293 86.1509 61.4334C86.1792 61.5376 86.1844 61.6465 86.166 61.7528L85.0354 68.18C84.9995 68.3449 84.9082 68.4926 84.7768 68.5984C84.6454 68.7042 84.4818 68.7617 84.3131 68.7614Z"
      fill="url(#paint0_linear_604_10)" />
    <path
      d="M88.4663 45.1507H65.5015L66.7969 37.8907C66.825 37.72 66.9134 37.5651 67.046 37.4541C67.1785 37.3431 67.3464 37.2834 67.5192 37.2857H89.5655C89.6731 37.285 89.7795 37.3082 89.8771 37.3534C89.9746 37.3987 90.061 37.465 90.13 37.5476C90.199 37.6302 90.249 37.727 90.2762 37.8311C90.3035 37.9353 90.3075 38.0441 90.2878 38.15L89.1651 44.5457C89.1348 44.711 89.0491 44.8612 88.922 44.9712C88.795 45.0812 88.6342 45.1445 88.4663 45.1507Z"
      fill="url(#paint1_linear_604_10)" />
    <path
      d="M64.112 53.0236H56.2607L57.5484 45.7636C57.5763 45.5922 57.6644 45.4364 57.7968 45.324C57.9291 45.2117 58.0972 45.1503 58.2707 45.1507H65.5174L64.112 53.0236Z"
      fill="#0064FF" />
    <path
      d="M71.3507 53.0236H64.1118L65.4936 45.1664H73.3449L72.0651 52.4264C72.0326 52.5929 71.9439 52.7432 71.8138 52.852C71.6837 52.9607 71.5201 53.0213 71.3507 53.0236Z"
      fill="#00C7F8" />
    <path
      d="M62.7222 60.8886H55.7346C55.6271 60.8893 55.5207 60.8661 55.4231 60.8208C55.3255 60.7756 55.2391 60.7093 55.1701 60.6267C55.1011 60.5441 55.0511 60.4473 55.0239 60.3431C54.9966 60.239 54.9926 60.1301 55.0123 60.0243L56.245 53.0236H64.0962L62.7222 60.8886Z"
      fill="#00C7F8" />
  </g>
  <path fill-rule="evenodd" clip-rule="evenodd"
    d="M276.769 100C272.373 100 269.89 100.847 268.464 102.833C266.974 104.906 266.675 108.179 266.675 112.789C266.675 121.838 268.077 125.621 276.769 125.621C277.813 125.621 281.381 125.601 283.464 125.348C284.275 125.214 284.638 124.594 284.638 124.04V123.04C284.638 122.263 284.049 121.676 283.268 121.676H276.769C271.865 121.676 270.98 120.522 270.855 113.962V111.839C270.896 105.126 271.781 103.946 276.769 103.946C281.368 103.946 282.25 104.994 282.403 110.903H275.095V114.893H284.707C286.601 114.893 286.601 113.571 286.601 113.137V111.863C286.463 102.661 284.258 100 276.769 100ZM264.112 100.352L264.007 100.325C263.112 100.137 260.665 100 259.452 100C255.16 100 252.892 101.794 252.892 105.188V124.083C252.892 124.861 253.437 125.404 254.218 125.404H255.745C256.526 125.404 257.072 124.861 257.072 124.083V105.535C257.072 104.697 257.284 103.946 259.845 103.946L263.638 103.943C264.009 103.987 264.363 103.885 264.636 103.654C264.934 103.403 265.098 103.037 265.098 102.625V101.669C265.098 101.042 264.738 100.562 264.112 100.352ZM245.78 100.305H244.254C243.472 100.305 242.927 100.848 242.927 101.626V121.676H236.577C232.649 121.676 231.056 121.427 231.056 115.178V101.626C231.056 100.848 230.51 100.305 229.729 100.305H228.245C227.464 100.305 226.875 100.872 226.875 101.626V115.178C226.875 124.059 230.102 125.621 236.882 125.621C239.321 125.621 242.662 125.621 245.847 125.174L245.921 125.159C246.708 124.963 247.107 124.513 247.107 123.822V101.626C247.107 100.848 246.561 100.305 245.78 100.305Z"
    fill="#F9FBFF" />
  <path fill-rule="evenodd" clip-rule="evenodd"
    d="M222.166 100.925C221.97 100.509 221.55 100.261 221.042 100.261H219.079C218.509 100.261 218.083 100.49 217.858 100.903L214.95 105.145L217.496 108.621L221.942 102.255C222.43 101.664 222.261 101.128 222.166 100.925Z"
    fill="#74BB11" />
  <path fill-rule="evenodd" clip-rule="evenodd"
    d="M206.831 100.855L206.828 100.851C206.385 100.261 205.795 100.261 205.601 100.261H203.681C203.189 100.261 202.787 100.486 202.576 100.879C202.36 101.281 202.406 101.765 202.705 102.212L209.816 112.052L201.639 123.437C201.353 123.865 201.313 124.341 201.529 124.743C201.741 125.135 202.144 125.36 202.635 125.36H204.597C205.102 125.36 205.545 125.099 205.767 124.687L214.92 112.098L206.831 100.855Z"
    fill="#009CD9" />
  <path fill-rule="evenodd" clip-rule="evenodd"
    d="M223.142 123.536L217.437 115.721L214.927 119.174L219.439 125.185L219.556 125.236C219.735 125.316 219.929 125.359 220.125 125.36H222.044C222.508 125.36 222.901 125.155 223.124 124.796C223.353 124.428 223.359 123.969 223.142 123.536Z"
    fill="#EB2084" />
  <path fill-rule="evenodd" clip-rule="evenodd"
    d="M194.092 114.719V121.356C192.149 121.653 189.187 121.719 188.178 121.719C183.713 121.719 183.223 120.501 183.223 117.915C183.223 115.495 184.131 114.718 186.956 114.718L194.092 114.719ZM187.96 100C186.58 100 184.699 100.036 182.358 100.317L182.252 100.34C181.57 100.534 181.225 100.981 181.225 101.669V102.625C181.225 103.439 181.733 103.946 182.551 103.946H187.96C192.315 103.946 194.092 105.123 194.092 108.011V110.816H186.956C181.38 110.816 179 112.939 179 117.915C179 123.46 181.463 125.621 187.785 125.621C190.346 125.621 195.06 125.423 196.802 124.892C198.272 124.485 198.272 123.365 198.272 122.997V107.75C198.272 102.535 194.899 100 187.96 100H187.96Z"
    fill="#F9FBFF" />
  <path fill-rule="evenodd" clip-rule="evenodd"
    d="M50.9926 120.666H58.1741C58.3781 120.666 58.5513 120.493 58.5513 120.289C58.5513 120.085 58.3781 119.912 58.1741 119.912H51.4005V115.496H57.3891C57.5931 115.496 57.7662 115.323 57.7662 115.119C57.7662 114.915 57.5931 114.741 57.3891 114.741H51.4005V110.42H58.0947C58.2987 110.42 58.4718 110.247 58.4718 110.043C58.4718 109.839 58.2987 109.666 58.0947 109.666H50.9795C50.8715 109.667 50.7683 109.711 50.6919 109.787C50.6155 109.864 50.5719 109.967 50.5704 110.075V120.258C50.5719 120.366 50.6155 120.469 50.6919 120.546C50.7683 120.622 50.8715 120.666 50.9795 120.667L50.9926 120.666ZM63.539 120.257C63.5405 120.365 63.5841 120.468 63.6605 120.544C63.7369 120.621 63.8401 120.664 63.9481 120.666H70.5012C70.7051 120.666 70.8783 120.493 70.8783 120.289C70.8783 120.085 70.7051 119.912 70.5012 119.912H64.3549V110.01C64.3533 109.902 64.3097 109.799 64.2333 109.722C64.1569 109.646 64.0538 109.602 63.9457 109.601C63.8377 109.602 63.7345 109.646 63.6581 109.722C63.5817 109.799 63.5381 109.902 63.5366 110.01L63.539 120.257ZM76.0996 120.666H83.293C83.497 120.666 83.6701 120.493 83.6701 120.289C83.6701 120.085 83.497 119.912 83.293 119.912H76.5194V115.496H82.508C82.712 115.496 82.8851 115.323 82.8851 115.119C82.8851 114.915 82.712 114.741 82.508 114.741H76.5194V110.42H83.2136C83.4176 110.42 83.5907 110.247 83.5907 110.043C83.5907 109.839 83.4176 109.666 83.2136 109.666H76.0984C75.9904 109.667 75.8872 109.711 75.8108 109.787C75.7344 109.864 75.6908 109.967 75.6893 110.075V120.258C75.6908 120.366 75.7344 120.469 75.8108 120.546C75.8872 120.622 75.9904 120.666 76.0984 120.667L76.0996 120.666ZM93.6266 120.856C95.4647 120.856 96.6743 120.18 97.7914 119.143C97.8542 119.08 97.9171 118.986 97.9171 118.859C97.9171 118.655 97.7273 118.467 97.5257 118.467C97.4 118.467 97.3052 118.53 97.2411 118.593C96.2035 119.583 95.1505 120.117 93.6598 120.117C91.0355 120.117 89.0077 117.947 89.0077 115.167V115.136C89.0077 112.371 91.0035 110.217 93.6326 110.217C95.1742 110.217 96.226 110.815 97.1368 111.648C97.1996 111.71 97.3099 111.758 97.4214 111.758C97.6419 111.758 97.8459 111.568 97.8459 111.349C97.8459 111.206 97.7677 111.097 97.6882 111.019C96.6209 110.106 95.4706 109.477 93.6492 109.477C90.4746 109.477 88.1491 112.054 88.1491 115.166V115.198C88.1491 118.357 90.4734 120.855 93.6183 120.855L93.6266 120.856ZM105.716 120.322C105.718 120.43 105.762 120.533 105.838 120.61C105.914 120.686 106.018 120.73 106.126 120.731C106.234 120.73 106.337 120.686 106.413 120.61C106.49 120.533 106.533 120.43 106.535 120.322V110.42H110.054C110.258 110.42 110.431 110.247 110.431 110.043C110.431 109.839 110.258 109.666 110.054 109.666H102.196C101.992 109.666 101.819 109.839 101.819 110.043C101.819 110.247 101.992 110.42 102.196 110.42H105.715L105.716 120.322ZM115.275 120.322C115.276 120.43 115.32 120.533 115.396 120.61C115.472 120.686 115.576 120.73 115.684 120.731C115.792 120.73 115.895 120.686 115.971 120.61C116.048 120.533 116.091 120.43 116.093 120.322V116.11H119.692L123.072 120.498C123.166 120.623 123.276 120.718 123.433 120.718C123.654 120.718 123.858 120.514 123.858 120.294C123.858 120.199 123.81 120.104 123.732 120.009L120.605 115.953C122.46 115.702 123.827 114.649 123.827 112.811V112.794C123.827 112.008 123.513 111.27 122.994 110.751C122.334 110.09 121.251 109.667 119.911 109.667H115.699C115.591 109.669 115.488 109.712 115.411 109.789C115.335 109.865 115.291 109.968 115.29 110.076L115.275 120.322ZM116.105 115.372V110.423H119.86C121.856 110.423 123.019 111.35 123.019 112.827V112.858C123.019 114.445 121.652 115.372 119.814 115.372H116.105ZM134.104 120.857C137.424 120.857 139.651 118.17 139.651 115.168V115.138C139.651 112.137 137.467 109.481 134.134 109.481C130.802 109.481 128.585 112.166 128.585 115.166V115.198C128.585 118.198 130.769 120.855 134.101 120.855L134.104 120.857ZM134.134 120.118C131.415 120.118 129.436 117.886 129.436 115.168V115.138C129.436 112.418 131.384 110.219 134.104 110.219C136.823 110.219 138.802 112.45 138.802 115.168V115.2C138.802 117.92 136.854 120.118 134.134 120.118ZM144.857 120.339C144.857 120.559 145.03 120.73 145.248 120.73C145.467 120.73 145.64 120.557 145.64 120.339V110.852L153.198 120.438C153.324 120.596 153.45 120.705 153.607 120.705H153.67C153.86 120.705 154 120.547 154 120.359V109.983C154 109.762 153.827 109.591 153.609 109.591C153.39 109.591 153.217 109.764 153.217 109.983V119.256L145.788 109.853C145.678 109.711 145.551 109.616 145.379 109.616H145.253C145.145 109.618 145.042 109.661 144.965 109.738C144.889 109.814 144.845 109.917 144.844 110.025L144.857 120.339ZM28.8715 106.509C24.9084 105.798 21.7742 106.542 20.5255 108.707C19.5934 110.319 19.8614 112.461 21.1718 114.75C21.2832 114.944 21.5323 115.011 21.7267 114.9C21.9212 114.79 21.9876 114.54 21.8773 114.345C20.6962 112.284 20.4543 110.437 21.2299 109.113C22.2675 107.317 25.0626 106.642 28.7269 107.311C28.9474 107.351 29.1597 107.192 29.2012 106.984C29.2427 106.775 29.0826 106.551 28.8739 106.509H28.8715ZM23.2328 117.529C24.8337 119.29 26.9172 120.942 29.2807 122.313C35.0321 125.634 41.1393 126.521 44.168 124.463C44.3529 124.336 44.4016 124.084 44.2865 123.899C44.1715 123.714 43.9071 123.665 43.7221 123.78C41.0219 125.621 35.2076 124.779 29.6993 121.598C27.3951 120.268 25.3792 118.669 23.8352 116.971C23.6846 116.805 23.4273 116.793 23.2612 116.944C23.0952 117.094 23.0834 117.352 23.234 117.518L23.2328 117.529ZM43.2169 117.046C45.8258 113.98 46.7187 110.896 45.4724 108.737C44.5557 107.148 42.6169 106.31 40.0412 106.277C39.804 106.274 39.632 106.455 39.6297 106.678C39.6273 106.901 39.8075 107.087 40.0305 107.089C42.3477 107.119 44.0185 107.842 44.7704 109.143C45.8056 110.936 44.9981 113.685 42.6002 116.519C42.4556 116.69 42.4769 116.946 42.6477 117.092C42.8184 117.238 43.0746 117.215 43.2205 117.044L43.2169 117.046ZM36.5464 106.655C34.1984 107.158 31.7022 108.141 29.3032 109.525C23.368 112.964 19.4961 118.004 20.0333 121.668C20.0653 121.89 20.2729 122.044 20.5077 122.024C20.7425 122.004 20.8836 121.784 20.8634 121.549C20.3855 118.297 24.0558 113.507 29.7337 110.228C32.0603 108.884 34.4795 107.932 36.7302 107.448C36.9496 107.401 37.0896 107.185 37.0421 106.966C36.9947 106.746 36.7789 106.606 36.5595 106.654L36.5464 106.655ZM26.9315 124.209C28.2881 127.998 30.508 130.331 33.0031 130.331C34.8234 130.331 36.5085 129.089 37.8212 126.892C37.9374 126.7 37.8746 126.449 37.6825 126.334C37.4904 126.219 37.2402 126.281 37.1251 126.473C35.9452 128.437 34.4949 129.505 33.0031 129.505C30.9278 129.505 28.9498 127.424 27.6952 123.922C27.6193 123.711 27.3868 123.602 27.1758 123.677C26.9647 123.752 26.8556 123.985 26.9303 124.196L26.9315 124.209ZM39.3261 123.467C40.0281 121.222 40.3934 118.632 40.3934 115.934C40.3934 109.201 38.0371 103.396 34.6799 101.906C34.4747 101.814 34.234 101.907 34.1439 102.112C34.0538 102.317 34.1451 102.558 34.3502 102.648C37.3445 103.976 39.568 109.486 39.568 115.933C39.568 118.552 39.2028 121.059 38.5244 123.224C38.4569 123.437 38.5766 123.666 38.7913 123.734C39.0059 123.801 39.2336 123.682 39.3012 123.467H39.3261Z"
    fill="#00D8FF" />
  <path fill-rule="evenodd" clip-rule="evenodd"
    d="M46.9824 123.07C46.9824 122.554 46.7774 122.059 46.4126 121.694C46.0477 121.329 45.5529 121.124 45.037 121.124C44.521 121.124 44.0262 121.329 43.6613 121.694C43.2965 122.059 43.0916 122.554 43.0916 123.07C43.0916 123.586 43.2965 124.08 43.6613 124.445C44.0262 124.81 44.521 125.015 45.037 125.015C45.5529 125.015 46.0477 124.81 46.4126 124.445C46.7774 124.08 46.9824 123.586 46.9824 123.07ZM46.17 123.07C46.17 123.695 45.6625 124.202 45.0376 124.202C44.4126 124.202 43.9051 123.695 43.9051 123.07C43.9051 122.445 44.4126 121.937 45.0376 121.937C45.6625 121.937 46.17 122.445 46.17 123.07Z"
    fill="#00D8FF" />
  <path
    d="M20.9454 125.016C21.4614 125.016 21.9562 124.811 22.321 124.446C22.6858 124.081 22.8908 123.586 22.8908 123.07C22.8908 122.554 22.6858 122.06 22.321 121.695C21.9562 121.33 21.4614 121.125 20.9454 121.125C20.4295 121.125 19.9346 121.33 19.5698 121.695C19.205 122.06 19 122.554 19 123.07C19 123.586 19.205 124.081 19.5698 124.446C19.9346 124.811 20.4295 125.016 20.9454 125.016V125.016ZM20.9454 124.203C20.3205 124.203 19.8129 123.696 19.8129 123.071C19.8129 122.446 20.3205 121.938 20.9454 121.938C21.5704 121.938 22.0779 122.446 22.0779 123.071C22.0779 123.696 21.5704 124.203 20.9454 124.203Z"
    fill="#00D8FF" />
  <path
    d="M33.004 103.891C33.52 103.891 34.0148 103.686 34.3796 103.321C34.7444 102.956 34.9494 102.461 34.9494 101.945C34.9494 101.429 34.7444 100.935 34.3796 100.57C34.0148 100.205 33.52 100 33.004 100C32.488 100 31.9932 100.205 31.6284 100.57C31.2636 100.935 31.0586 101.429 31.0586 101.945C31.0586 102.461 31.2636 102.956 31.6284 103.321C31.9932 103.686 32.488 103.891 33.004 103.891V103.891ZM33.004 103.078C32.379 103.078 31.8715 102.571 31.8715 101.946C31.8715 101.321 32.379 100.813 33.004 100.813C33.6289 100.813 34.1365 101.321 34.1365 101.946C34.1365 102.571 33.6289 103.078 33.004 103.078Z"
    fill="#00D8FF" />
  <path fill-rule="evenodd" clip-rule="evenodd"
    d="M33.302 117.312C32.5431 117.476 31.7936 116.992 31.63 116.233C31.4663 115.474 31.9501 114.725 32.7091 114.561C33.468 114.398 34.2175 114.881 34.3812 115.64C34.5448 116.399 34.061 117.149 33.302 117.312Z"
    fill="#00D8FF" />
  <defs>
    <linearGradient id="paint0_linear_604_10" x1="59.7309" y1="64.825" x2="88.121" y2="64.825"
      gradientUnits="userSpaceOnUse">
      <stop stop-color="#FFA000" />
      <stop offset="0.5" stop-color="#FFB700" />
      <stop offset="1" stop-color="#FFD300" />
    </linearGradient>
    <linearGradient id="paint1_linear_604_10" x1="65.5015" y1="41.2221" x2="90.3349" y2="41.2221"
      gradientUnits="userSpaceOnUse">
      <stop offset="0.04" stop-color="#0064FF" />
      <stop offset="0.29" stop-color="#006DFF" />
      <stop offset="0.7" stop-color="#0085FF" />
      <stop offset="1" stop-color="#009BFF" />
    </linearGradient>
    <clipPath id="clip0_604_10">
      <rect width="190" height="44" fill="white" transform="translate(55 31)" />
    </clipPath>
  </defs>
</svg>