<svg width="300" height="150" viewBox="0 0 300 150" fill="none" xmlns="http://www.w3.org/2000/svg">
  <rect width="300" height="150" fill="black" />
  <path
    d="M274.582 114.781L277.043 100.883C277.357 99.0729 277.719 97.7579 278.129 96.9376C278.563 96.1172 279.094 95.526 279.721 95.1641C280.349 94.778 281.109 94.5368 282.001 94.4402C282.918 94.3196 283.92 94.2593 285.005 94.2593H290L288.444 97.9872H285.15C283.871 97.9872 283.039 98.1561 282.653 98.4939C282.267 98.8075 282.001 99.1936 281.857 99.652C281.736 100.11 281.627 100.605 281.531 101.136L279.106 114.781H274.582Z"
    fill="white" />
  <path
    d="M260.295 115.034C257.979 115.034 256.314 114.672 255.301 113.948C254.287 113.225 253.781 112.006 253.781 110.293C253.781 109.497 253.937 108.206 254.251 106.42L255.192 101.1C255.457 99.6039 255.759 98.4095 256.097 97.5168C256.459 96.5999 256.941 95.8881 257.545 95.3814C258.148 94.8747 258.932 94.5248 259.897 94.3318C260.862 94.1146 262.117 94.006 263.661 94.006H266.159C268.475 94.006 270.14 94.368 271.153 95.0918C272.167 95.8157 272.673 97.0342 272.673 98.7473C272.673 99.5436 272.516 100.834 272.203 102.62L271.262 107.94C270.996 109.436 270.683 110.643 270.321 111.56C269.983 112.452 269.512 113.152 268.909 113.659C268.306 114.166 267.522 114.515 266.557 114.708C265.591 114.926 264.337 115.034 262.793 115.034H260.295ZM261.453 111.379H263.082C263.758 111.379 264.337 111.318 264.819 111.198C265.302 111.053 265.688 110.775 265.978 110.365C266.291 109.955 266.557 109.135 266.774 107.904L267.715 102.584C268.004 101.015 268.149 99.9779 268.149 99.4712C268.149 98.7232 267.92 98.2286 267.461 97.9873C267.027 97.746 266.207 97.6253 265 97.6253H263.372C262.696 97.6253 262.117 97.6977 261.634 97.8425C261.152 97.9631 260.754 98.2286 260.44 98.6387C260.15 99.0489 259.897 99.8693 259.68 101.1L258.739 106.42C258.449 107.964 258.305 109.002 258.305 109.533C258.305 110.281 258.522 110.775 258.956 111.017C259.415 111.258 260.247 111.379 261.453 111.379Z"
    fill="white" />
  <path
    d="M246.403 97.9149L244.775 107.144C244.557 108.326 244.449 109.159 244.449 109.641C244.449 110.148 244.582 110.51 244.847 110.727C245.112 110.92 245.486 111.041 245.969 111.089C246.476 111.113 247.055 111.125 247.706 111.125H250.167L248.611 114.781H245.969C244.69 114.781 243.653 114.672 242.856 114.455C242.084 114.238 241.481 113.936 241.047 113.55C240.612 113.164 240.311 112.706 240.142 112.175C239.973 111.644 239.889 111.089 239.889 110.51C239.889 109.69 240.021 108.568 240.287 107.144L241.915 97.9149H239.237L239.852 94.2594H242.567L243.653 88.179H248.141L247.055 94.2594H252.809L252.158 97.9149H246.403Z"
    fill="white" />
  <path
    d="M232.238 90.8934L233.07 86.2607H237.703L236.871 90.8934H232.238ZM228.148 114.781L231.731 94.2594H236.219L232.636 114.781H228.148Z"
    fill="white" />
  <path
    d="M219.347 94.2593C220.77 94.2593 221.916 94.3679 222.785 94.585C223.654 94.8022 224.305 95.1762 224.739 95.707C225.198 96.2137 225.427 96.9617 225.427 97.951C225.427 98.1199 225.403 98.4577 225.355 98.9644C225.331 99.4469 225.162 100.581 224.848 102.367L222.676 114.781H218.189L220.396 102.367C220.638 101.015 220.758 100.062 220.758 99.5073C220.758 98.904 220.601 98.5059 220.288 98.3129C219.974 98.0957 219.383 97.9872 218.514 97.9872H213.23L210.298 114.781H205.811L209.394 94.2593H219.347Z"
    fill="white" />
  <path
    d="M191.125 115.034C188.809 115.034 187.144 114.672 186.131 113.948C185.117 113.225 184.611 112.006 184.611 110.293C184.611 109.497 184.767 108.206 185.081 106.42L186.022 101.1C186.288 99.6039 186.589 98.4095 186.927 97.5168C187.289 96.5999 187.771 95.8881 188.375 95.3814C188.978 94.8747 189.762 94.5248 190.727 94.3318C191.692 94.1146 192.947 94.006 194.491 94.006H196.989C199.305 94.006 200.97 94.368 201.983 95.0918C202.997 95.8157 203.503 97.0342 203.503 98.7473C203.503 99.5436 203.347 100.834 203.033 102.62L202.092 107.94C201.826 109.436 201.513 110.643 201.151 111.56C200.813 112.452 200.342 113.152 199.739 113.659C199.136 114.166 198.352 114.515 197.387 114.708C196.422 114.926 195.167 115.034 193.623 115.034H191.125ZM192.284 111.379H193.912C194.588 111.379 195.167 111.318 195.649 111.198C196.132 111.053 196.518 110.775 196.808 110.365C197.121 109.955 197.387 109.135 197.604 107.904L198.545 102.584C198.834 101.015 198.979 99.9779 198.979 99.4712C198.979 98.7232 198.75 98.2286 198.292 97.9873C197.857 97.746 197.037 97.6253 195.83 97.6253H194.202C193.526 97.6253 192.947 97.6977 192.464 97.8425C191.982 97.9631 191.584 98.2286 191.27 98.6387C190.981 99.0489 190.727 99.8693 190.51 101.1L189.569 106.42C189.279 107.964 189.135 109.002 189.135 109.533C189.135 110.281 189.352 110.775 189.786 111.017C190.245 111.258 191.077 111.379 192.284 111.379Z"
    fill="white" />
  <path
    d="M175.19 87.3828C177.338 87.3828 178.918 87.5517 179.932 87.8895C180.969 88.2273 181.693 88.746 182.103 89.4458C182.538 90.1214 182.755 91.0382 182.755 92.1964C182.755 93.2581 182.55 94.935 182.139 97.2272L179.063 114.781H174.249L177.036 98.6388C177.277 97.1911 177.458 96.0691 177.579 95.2728C177.7 94.4766 177.76 93.8492 177.76 93.3908C177.76 92.9082 177.688 92.5101 177.543 92.1964C177.398 91.8827 177.096 91.6535 176.638 91.5088C176.18 91.3399 175.251 91.2554 173.851 91.2554H171.028L166.902 114.781H162.052L166.178 91.2554H158.976L154.85 114.781H150L154.814 87.3828H175.19Z"
    fill="white" />
  <g clip-path="url(#clip0_750_2)">
    <mask id="mask0_750_2" style="mask-type:luminance" maskUnits="userSpaceOnUse" x="11" y="35" width="80" height="80">
      <path d="M91 35H11V115H91V35Z" fill="white" />
    </mask>
    <g mask="url(#mask0_750_2)">
      <path
        d="M51.0015 35C64.496 35.1727 77.6022 39.5414 88.5015 47.5C88.5015 47.5 90.9517 89.6687 52.1887 114.26L51.0015 115L49.8142 114.26C11.0513 89.6687 13.5016 47.5 13.5016 47.5C24.4008 39.5414 37.507 35.1727 51.0015 35ZM51.0015 40C39.4062 40.1396 28.1064 43.6773 18.5016 50.175C19.0871 73.932 31.2156 95.9125 51.0015 109.075C70.6672 95.8022 82.7585 73.889 83.5015 50.175C73.9025 43.6652 62.599 40.1264 51.0015 40ZM50.299 55.7999L49.131 71.0293L49.1032 71.511C49.0177 73.862 49.6685 74.755 51.1845 74.755C52.0065 74.755 52.5207 74.5345 52.8635 74.1035C53.2367 73.6345 53.5207 72.7677 53.661 71.5132L53.707 71.0245L54.8742 55.7999H59.7765L58.5927 71.2387L58.5292 71.9C58.26 74.2313 57.5552 76.0365 56.3597 77.2853C55.0207 78.684 53.1475 79.3645 50.8312 79.3645C46.2757 79.3645 43.9775 76.692 44.1777 71.8235L44.2102 71.2735L45.3967 55.7999H50.299ZM29.5604 55.7999L36.686 55.8003L37.2937 55.8158C39.2347 55.9145 40.8095 56.4759 41.9765 57.5196C43.3177 58.7191 43.91 60.3992 43.7522 62.4552C43.633 64.0122 43.0042 65.4183 41.892 66.6243C41.4027 67.1545 40.8472 67.6075 40.2282 67.9835L39.7525 68.251L39.303 68.464L45.5062 78.969H39.486L34.1399 69.579H33.4049L32.6863 78.969H27.784L29.5604 55.7999ZM76.3307 55.7999L74.5542 78.969H69.7397L70.654 67.0165L68.7377 78.969H64.723L64.6432 67.015L63.729 78.969H58.9145L60.691 55.7999L66.4982 55.8158L67.402 70.334L70.513 55.8158L76.3307 55.7999ZM35.9513 60.3947L34.1092 60.394L33.7572 64.984L35.5408 64.9845C36.5227 64.9845 37.2792 64.738 37.8665 64.259C38.4197 63.8075 38.6985 63.2847 38.7507 62.6017C38.8625 61.1455 38.2122 60.48 36.3417 60.4025L35.9513 60.3947Z"
        fill="#0052D9" />
    </g>
  </g>
  <path
    d="M277.034 28H281.809L276.379 58.7304H266.713C264.249 58.7304 262.477 58.3325 261.399 57.5367C260.321 56.7665 259.781 55.4828 259.781 53.6857C259.781 52.8385 259.948 51.465 260.282 49.5652L261.168 44.4435C261.425 42.8774 261.745 41.6195 262.131 40.6696C262.516 39.694 263.029 38.9367 263.671 38.3975C264.313 37.8327 265.147 37.4476 266.174 37.2422C267.227 37.0112 268.562 36.8957 270.179 36.8957H275.455L277.034 28ZM268.023 54.841H272.297L274.762 40.7851H269.909C269.191 40.7851 268.574 40.8493 268.061 40.9776C267.573 41.106 267.162 41.3884 266.829 41.8249C266.495 42.2613 266.213 43.1342 265.982 44.4435L265.057 49.6422C264.775 51.1569 264.634 52.2352 264.634 52.877C264.634 53.6729 264.878 54.1992 265.365 54.4559C265.853 54.7126 266.739 54.841 268.023 54.841Z"
    fill="white" />
  <path
    d="M249.993 36.8958C251.508 36.8958 252.727 37.0113 253.651 37.2423C254.576 37.4734 255.269 37.8713 255.731 38.4361C256.219 38.9753 256.463 39.7711 256.463 40.8237C256.463 41.0034 256.437 41.3628 256.386 41.902C256.36 42.4154 256.18 43.622 255.846 45.5218L253.536 58.7305H248.761L251.11 45.5218C251.367 44.0842 251.495 43.0701 251.495 42.4796C251.495 41.8378 251.328 41.4142 250.994 41.2088C250.661 40.9777 250.032 40.8622 249.107 40.8622H243.485L240.366 58.7305H235.591L239.403 36.8958H249.993Z"
    fill="white" />
  <path
    d="M234.514 33.7378H224.155L222.73 41.9018H232.781L231.125 45.9453H221.999L220.535 54.4558H232.05L230.278 58.7304H214.605L219.727 29.5788H236.247L234.514 33.7378Z"
    fill="white" />
  <path d="M199.705 48.6409L200.437 44.5204H211.758L211.027 48.6409H199.705Z" fill="white" />
  <path
    d="M192.136 40.785L190.403 50.6049C190.172 51.8629 190.056 52.7486 190.056 53.2621C190.056 53.8012 190.197 54.1863 190.48 54.4173C190.762 54.6227 191.16 54.7511 191.673 54.8024C192.213 54.8281 192.829 54.8409 193.522 54.8409H196.141L194.485 58.7304H191.673C190.313 58.7304 189.209 58.6149 188.362 58.3838C187.54 58.1527 186.898 57.8318 186.436 57.4211C185.974 57.0103 185.653 56.5225 185.473 55.9577C185.294 55.3929 185.204 54.8024 185.204 54.1863C185.204 53.3134 185.345 52.1196 185.628 50.6049L187.36 40.785H184.511L185.165 36.8956H188.054L189.209 30.426H193.984L192.829 36.8956H198.952L198.259 40.785H192.136Z"
    fill="white" />
  <path
    d="M174.027 36.8958C175.542 36.8958 176.761 37.0113 177.686 37.2423C178.61 37.4734 179.303 37.8713 179.765 38.4361C180.253 38.9753 180.497 39.7711 180.497 40.8237C180.497 41.0034 180.471 41.3628 180.42 41.902C180.394 42.4154 180.214 43.622 179.881 45.5218L177.57 58.7305H172.795L175.144 45.5218C175.401 44.0842 175.529 43.0701 175.529 42.4796C175.529 41.8378 175.362 41.4142 175.028 41.2088C174.695 40.9777 174.066 40.8622 173.142 40.8622H167.519L164.4 58.7305H159.625L163.437 36.8958H174.027Z"
    fill="white" />
  <path
    d="M144.001 59C141.536 59 139.765 58.6149 138.686 57.8447C137.608 57.0746 137.069 55.7781 137.069 53.9553C137.069 53.1081 137.236 51.7346 137.569 49.8348L138.571 44.1739C138.853 42.5822 139.174 41.3114 139.533 40.3615C139.919 39.3859 140.432 38.6286 141.074 38.0895C141.716 37.5503 142.55 37.1781 143.577 36.9727C144.604 36.7416 145.939 36.6261 147.582 36.6261H150.239C152.704 36.6261 154.475 37.0112 155.553 37.7814C156.632 38.5516 157.171 39.848 157.171 41.6708C157.171 42.518 157.004 43.8915 156.67 45.7913L155.669 51.4522C155.386 53.0439 155.053 54.3276 154.668 55.3031C154.308 56.253 153.808 56.9975 153.166 57.5367C152.524 58.0758 151.69 58.4481 150.663 58.6534C149.636 58.8845 148.301 59 146.658 59H144.001ZM145.233 55.1106H146.966C147.685 55.1106 148.301 55.0464 148.814 54.918C149.328 54.764 149.738 54.4688 150.046 54.0323C150.38 53.5959 150.663 52.723 150.894 51.4137L151.895 45.7528C152.203 44.0841 152.357 42.9801 152.357 42.441C152.357 41.6451 152.113 41.1189 151.625 40.8621C151.163 40.6054 150.29 40.477 149.007 40.477H147.274C146.555 40.477 145.939 40.5541 145.425 40.7081C144.912 40.8365 144.488 41.1189 144.155 41.5553C143.846 41.9917 143.577 42.8646 143.346 44.1739L142.345 49.8348C142.037 51.4779 141.883 52.5818 141.883 53.1466C141.883 53.9425 142.114 54.4688 142.576 54.7255C143.063 54.9822 143.949 55.1106 145.233 55.1106Z"
    fill="white" />
  <path
    d="M135.948 33.7763H125.55L124.125 41.8633H134.677L132.944 45.9838H123.394L121.16 58.7304H116L121.122 29.5788H137.719L135.948 33.7763Z"
    fill="white" />
  <defs>
    <clipPath id="clip0_750_2">
      <rect width="80" height="80" fill="white" transform="translate(11 35)" />
    </clipPath>
  </defs>
</svg>