<svg width="300" height="150" viewBox="0 0 300 150" fill="none" xmlns="http://www.w3.org/2000/svg">
  <rect width="300" height="150" fill="black" />
  <path
    d="M135.309 60C135.964 60 136.598 60.0321 137.21 60.0963C137.844 60.1604 138.39 60.2888 138.849 60.4813C139.308 60.6738 139.679 60.9733 139.964 61.3797C140.248 61.7647 140.39 62.3316 140.39 63.0802C140.39 63.7647 140.237 64.984 139.931 66.738L139.374 69.7861C139.155 71.0267 138.871 72.0535 138.521 72.8663C138.172 73.6791 137.724 74.3209 137.177 74.7914C136.631 75.262 135.942 75.6043 135.112 75.8182C134.282 76.0107 133.265 76.107 132.063 76.107H125.868L124.393 84.2888H120L124.36 60H135.309ZM135.538 66.738C135.735 65.6684 135.833 64.9626 135.833 64.6203C135.833 64.1497 135.658 63.8396 135.309 63.6898C134.959 63.5187 134.314 63.4332 133.375 63.4332H128.13L126.491 72.6738H131.539C132.347 72.6738 132.981 72.5668 133.44 72.3529C133.899 72.1176 134.26 71.7326 134.522 71.1979C134.784 70.6417 135.025 69.7219 135.243 68.4385L135.538 66.738Z"
    fill="white" />
  <path
    d="M140.448 84.2888L142.678 71.9679C142.962 70.3636 143.289 69.1979 143.661 68.4706C144.054 67.7433 144.535 67.2193 145.103 66.8984C145.671 66.5561 146.36 66.3422 147.168 66.2567C147.999 66.1497 148.906 66.0963 149.889 66.0963H154.413L153.004 69.4011H150.02C148.862 69.4011 148.108 69.5508 147.759 69.8503C147.409 70.1283 147.168 70.4706 147.037 70.877C146.928 71.2834 146.83 71.7219 146.742 72.1925L144.546 84.2888H140.448Z"
    fill="white" />
  <path
    d="M160.578 84.5134C158.48 84.5134 156.972 84.1925 156.054 83.5508C155.136 82.9091 154.677 81.8289 154.677 80.3102C154.677 79.6043 154.819 78.4599 155.104 76.877L155.956 72.1604C156.196 70.8342 156.469 69.7754 156.775 68.984C157.103 68.1711 157.54 67.5401 158.087 67.0909C158.633 66.6417 159.343 66.3316 160.217 66.1604C161.092 65.9679 162.228 65.8717 163.627 65.8717H165.888C167.986 65.8717 169.494 66.1925 170.412 66.8342C171.33 67.4759 171.789 68.5562 171.789 70.0749C171.789 70.7807 171.647 71.9251 171.363 73.508L170.511 78.2246C170.27 79.5508 169.986 80.6203 169.658 81.4332C169.352 82.2246 168.926 82.8449 168.38 83.2941C167.833 83.7433 167.123 84.0535 166.249 84.2246C165.375 84.4171 164.238 84.5134 162.84 84.5134H160.578ZM161.627 81.2727H163.102C163.714 81.2727 164.238 81.2192 164.676 81.1123C165.113 80.984 165.462 80.738 165.725 80.3743C166.009 80.0107 166.249 79.2834 166.446 78.1925L167.298 73.4759C167.56 72.0856 167.691 71.1658 167.691 70.7166C167.691 70.0535 167.484 69.615 167.069 69.4011C166.675 69.1872 165.932 69.0802 164.839 69.0802H163.364C162.752 69.0802 162.228 69.1444 161.791 69.2727C161.354 69.3797 160.993 69.615 160.709 69.9786C160.447 70.3422 160.217 71.0695 160.021 72.1604L159.168 76.877C158.906 78.246 158.775 79.1658 158.775 79.6364C158.775 80.2995 158.972 80.738 159.365 80.9519C159.78 81.1658 160.534 81.2727 161.627 81.2727Z"
    fill="white" />
  <path
    d="M181.321 69.3369L179.846 77.5187C179.649 78.5668 179.551 79.3048 179.551 79.7326C179.551 80.1818 179.671 80.5027 179.911 80.6952C180.152 80.8663 180.49 80.9733 180.927 81.016C181.386 81.0374 181.911 81.0481 182.501 81.0481H184.73L183.321 84.2888H180.927C179.769 84.2888 178.83 84.1925 178.108 84C177.409 83.8075 176.863 83.5401 176.469 83.1979C176.076 82.8556 175.803 82.4492 175.65 81.9786C175.497 81.508 175.42 81.016 175.42 80.5027C175.42 79.7754 175.54 78.7807 175.781 77.5187L177.256 69.3369H174.83L175.388 66.0963H177.846L178.83 60.7059H182.894L181.911 66.0963H187.123L186.533 69.3369H181.321Z"
    fill="white" />
  <path
    d="M193.903 84.5134C191.805 84.5134 190.297 84.1925 189.379 83.5508C188.461 82.9091 188.003 81.8289 188.003 80.3102C188.003 79.6043 188.145 78.4599 188.429 76.877L189.281 72.1604C189.521 70.8342 189.795 69.7754 190.101 68.984C190.428 68.1711 190.865 67.5401 191.412 67.0909C191.958 66.6417 192.668 66.3316 193.543 66.1604C194.417 65.9679 195.553 65.8717 196.952 65.8717H199.214C201.312 65.8717 202.82 66.1925 203.737 66.8342C204.655 67.4759 205.114 68.5562 205.114 70.0749C205.114 70.7807 204.972 71.9251 204.688 73.508L203.836 78.2246C203.595 79.5508 203.311 80.6203 202.983 81.4332C202.677 82.2246 202.251 82.8449 201.705 83.2941C201.159 83.7433 200.448 84.0535 199.574 84.2246C198.7 84.4171 197.564 84.5134 196.165 84.5134H193.903ZM194.952 81.2727H196.427C197.039 81.2727 197.564 81.2192 198.001 81.1123C198.438 80.984 198.787 80.738 199.05 80.3743C199.334 80.0107 199.574 79.2834 199.771 78.1925L200.623 73.4759C200.885 72.0856 201.017 71.1658 201.017 70.7166C201.017 70.0535 200.809 69.615 200.394 69.4011C200 69.1872 199.257 69.0802 198.165 69.0802H196.689C196.078 69.0802 195.553 69.1444 195.116 69.2727C194.679 69.3797 194.318 69.615 194.034 69.9786C193.772 70.3422 193.543 71.0695 193.346 72.1604L192.494 76.877C192.231 78.246 192.1 79.1658 192.1 79.6364C192.1 80.2995 192.297 80.738 192.69 80.9519C193.105 81.1658 193.859 81.2727 194.952 81.2727Z"
    fill="white" />
  <path
    d="M214.646 69.3369L213.171 77.5187C212.974 78.5668 212.876 79.3048 212.876 79.7326C212.876 80.1818 212.996 80.5027 213.236 80.6952C213.477 80.8663 213.816 80.9733 214.253 81.016C214.712 81.0374 215.236 81.0481 215.826 81.0481H218.055L216.646 84.2888H214.253C213.094 84.2888 212.155 84.1925 211.433 84C210.734 83.8075 210.188 83.5401 209.794 83.1979C209.401 82.8556 209.128 82.4492 208.975 81.9786C208.822 81.508 208.745 81.016 208.745 80.5027C208.745 79.7754 208.866 78.7807 209.106 77.5187L210.581 69.3369H208.155L208.713 66.0963H211.171L212.155 60.7059H216.22L215.236 66.0963H220.448L219.858 69.3369H214.646Z"
    fill="white" />
  <path
    d="M235.163 66.0963H239.195L235.851 84.7701C235.611 86.0963 235.25 87.1337 234.769 87.8824C234.289 88.631 233.644 89.1658 232.835 89.4866C232.027 89.8289 230.868 90 229.361 90H222.345L221.755 86.7273H228.443C229.623 86.7273 230.377 86.631 230.705 86.4385C231.032 86.2674 231.284 85.9893 231.459 85.6043C231.633 85.2406 231.808 84.6096 231.983 83.7112L232.213 82.4599H227.558C225.46 82.4599 223.952 82.139 223.034 81.4973C222.116 80.8556 221.657 79.7754 221.657 78.2567C221.657 77.5508 221.799 76.4064 222.083 74.8235L223.657 66.0963H227.722L226.148 74.8235C225.886 76.1925 225.755 77.1123 225.755 77.5829C225.755 78.246 225.951 78.6845 226.345 78.8984C226.76 79.1123 227.514 79.2192 228.607 79.2192H232.803L235.163 66.0963Z"
    fill="white" />
  <path
    d="M252.196 66.0963C254.294 66.0963 255.802 66.4171 256.72 67.0588C257.638 67.7005 258.097 68.7807 258.097 70.2995C258.097 71.0053 257.955 72.1497 257.671 73.7326L256.884 78.0321C256.534 80 256.075 81.3904 255.507 82.2032C254.961 83.016 254.207 83.5722 253.245 83.8717C252.305 84.1711 250.972 84.3209 249.246 84.3209H244.656L243.64 90H239.575L243.903 66.0963H252.196ZM253.606 73.7326C253.846 72.4706 253.966 71.5508 253.966 70.9733C253.966 70.3102 253.759 69.8717 253.343 69.6578C252.95 69.4439 252.207 69.3369 251.114 69.3369H247.377L245.247 81.0802H249.475C250.612 81.0802 251.398 80.8877 251.835 80.5027C252.273 80.0963 252.6 79.2727 252.819 78.0321L253.606 73.7326Z"
    fill="white" />
  <path
    d="M271.722 65.8717C273.055 65.8717 274.093 66.0107 274.836 66.2888C275.579 66.5455 276.126 66.9412 276.475 67.4759C276.825 67.9893 277 68.6524 277 69.4652C277 69.9572 276.956 70.4278 276.869 70.877L276.41 73.4118C276.148 74.8449 275.7 75.8503 275.066 76.4278C274.432 76.984 273.438 77.262 272.083 77.262H264.871L264.707 78.2567C264.598 78.8556 264.543 79.3262 264.543 79.6684C264.543 80.2032 264.718 80.5668 265.068 80.7594C265.417 80.9519 266.073 81.0481 267.035 81.0481H273.624L272.28 84.2888H266.248C265.461 84.2888 264.707 84.2353 263.986 84.1283C263.265 84.0428 262.642 83.8717 262.117 83.615C261.615 83.3797 261.211 83.0267 260.905 82.5561C260.62 82.0856 260.478 81.4439 260.478 80.631C260.478 80.0321 260.555 79.2834 260.708 78.385L261.986 71.1979C262.205 69.9572 262.533 68.9519 262.97 68.1818C263.429 67.4118 264.117 66.8342 265.035 66.4492C265.953 66.0642 267.439 65.8717 269.493 65.8717H271.722ZM272.804 70.877C272.87 70.492 272.902 70.2139 272.902 70.0428C272.902 69.6791 272.76 69.4332 272.476 69.3048C272.192 69.1551 271.668 69.0802 270.903 69.0802H268.575C267.963 69.0802 267.483 69.1444 267.133 69.2727C266.805 69.4011 266.554 69.6471 266.379 70.0107C266.204 70.3529 266.073 70.7487 265.986 71.1979L265.461 74.1497H271.034C271.471 74.1497 271.799 74.0642 272.017 73.893C272.236 73.7005 272.378 73.3904 272.443 72.9626L272.804 70.877Z"
    fill="white" />
  <g clip-path="url(#clip0_651_135)">
    <path d="M103 29H18V114H103V29Z" fill="#F7DF1E" />
    <path
      d="M75.0984 95.4066C76.8105 98.2021 79.0381 100.257 82.9778 100.257C86.2874 100.257 88.4016 98.6029 88.4016 96.3173C88.4016 93.5784 86.2293 92.6083 82.5865 91.0149L80.5897 90.1582C74.8259 87.7026 70.9968 84.6264 70.9968 78.1233C70.9968 72.1328 75.5612 67.5725 82.6944 67.5725C87.7728 67.5725 91.4238 69.3399 94.0547 73.9677L87.8349 77.9614C86.4655 75.5058 84.9881 74.5384 82.6944 74.5384C80.3549 74.5384 78.8721 76.0225 78.8721 77.9614C78.8721 80.3575 80.3563 81.3276 83.7832 82.8117L85.7801 83.6671C92.5666 86.5774 96.3983 89.5443 96.3983 96.2148C96.3983 103.406 90.7492 107.346 83.1626 107.346C75.7447 107.346 70.9523 103.811 68.6074 99.1776L75.0984 95.4066ZM46.8824 96.0987C48.1372 98.3249 49.2786 100.207 52.0229 100.207C54.6471 100.207 56.3026 99.1803 56.3026 95.188V68.0285H64.2899V95.296C64.2899 103.567 59.4409 107.331 52.3629 107.331C45.9677 107.331 42.2641 104.021 40.3806 100.035L46.8824 96.0987Z"
      fill="black" />
  </g>
  <defs>
    <clipPath id="clip0_651_135">
      <rect width="85" height="85" fill="white" transform="translate(18 29)" />
    </clipPath>
  </defs>
</svg>