<svg width="300" height="150" viewBox="0 0 300 150" fill="none" xmlns="http://www.w3.org/2000/svg">
  <rect width="300" height="150" fill="black" />
  <path
    d="M57.2348 29.9036H42.5178L40.501 41.2774H55.436L52.9832 47.0727H39.4654L36.304 65H29L36.2495 24H59.7421L57.2348 29.9036Z"
    fill="#00C4D6" />
  <path
    d="M89.2922 24C90.3824 24 91.4362 24.0542 92.4537 24.1625C93.5075 24.2708 94.4159 24.4874 95.179 24.8124C95.9421 25.1374 96.5599 25.6429 97.0323 26.3289C97.5047 26.9789 97.7409 27.9357 97.7409 29.1995C97.7409 30.6438 97.4865 32.7019 96.9778 35.3738L95.8331 41.6565C95.4697 43.5702 94.9065 45.0506 94.1434 46.0978C93.4166 47.1088 92.4173 47.8309 91.1455 48.2642C89.91 48.6975 88.0931 48.9141 85.6948 48.9141L92.9987 65H85.6403L77.9547 47.7768L78.6633 43.8771H84.2776C85.5858 43.8771 86.5124 43.7327 87.0574 43.4439C87.6025 43.155 88.0022 42.7398 88.2566 42.1981C88.511 41.6565 88.7108 41.0066 88.8562 40.2483L89.6738 35.3738C89.9645 33.6046 90.1099 32.6116 90.1099 32.395C90.1462 32.1422 90.1644 31.9436 90.1644 31.7992C90.1644 31.0048 89.8737 30.4813 89.2922 30.2285C88.7108 29.9397 87.6389 29.7952 86.0763 29.7952H77.1916L70.9778 65H63.6738L70.9233 24H89.2922Z"
    fill="#00C4D6" />
  <path
    d="M129.551 24C130.642 24 131.695 24.0542 132.713 24.1625C133.767 24.2708 134.675 24.4874 135.438 24.8124C136.201 25.1374 136.819 25.6429 137.291 26.3289C137.764 26.9789 138 27.9357 138 29.1995C138 30.3549 137.746 32.413 137.237 35.3738L136.31 40.5192C135.947 42.6134 135.474 44.3465 134.893 45.7186C134.312 47.0907 133.567 48.1739 132.658 48.9683C131.75 49.7627 130.605 50.3404 129.224 50.7015C127.843 51.0264 126.154 51.1889 124.155 51.1889H113.853L111.4 65H104.096L111.346 24H129.551ZM129.933 35.3738C130.26 33.5685 130.423 32.3769 130.423 31.7992C130.423 31.0048 130.133 30.4813 129.551 30.2285C128.97 29.9397 127.898 29.7952 126.335 29.7952H117.614L114.889 45.3937H123.283C124.628 45.3937 125.681 45.2131 126.444 44.852C127.208 44.4549 127.807 43.8049 128.243 42.9022C128.679 41.9635 129.079 40.4108 129.442 38.2444L129.933 35.3738Z"
    fill="#00C4D6" />
  <path
    d="M247.447 71V118.269H257.749V106.369L269.086 118.269H283V117.706L268.051 102.546L282.148 89.5472V89.0543H268.565L257.742 99.5883V71H247.447ZM226.815 87.9699C222.21 87.8409 217.722 89.4354 214.231 92.4412C212.667 93.8042 211.415 95.4885 210.56 97.3793C209.706 99.2701 209.27 101.323 209.281 103.398C209.267 108.679 211.471 112.46 214.21 114.967C217.914 118.333 222.808 119.375 226.653 119.354C231.342 119.354 236.088 117.981 239.363 114.988C243.032 111.587 244.384 107.742 244.384 103.672C244.384 98.5321 242.201 94.8917 239.384 92.3849C235.49 89.0402 230.92 87.9629 226.815 87.9699ZM163.003 88.2445C154.637 88.2093 148.215 95.124 148.187 104.088C148.159 113.214 154.581 118.931 162.496 118.847C167.172 118.861 169.418 117.129 171.706 115.037V123.438H162.059L154.806 131.592V133H182.023V89.0613H171.706V92.1244C169.024 89.2514 166.27 88.3079 163.003 88.2445ZM129.168 89.0191L124.302 94.5537V89.1247H114V118.347H124.302V98.6377C128.154 98.6518 131.506 98.6236 134.794 98.6166V118.347H145.11V100.074C145.082 96.2225 144.406 94.3072 142.948 92.6032C141.333 90.6364 139.034 89.3534 136.512 89.012L129.168 89.0191ZM186.304 89.0543V118.276H196.641L196.655 98.7081H204.154L212.351 89.4556V89.0543H201.098L196.627 94.0889V89.0543H186.304ZM165.559 96.9055C169.108 96.9055 172.319 100.032 172.235 103.581C172.214 105.343 171.504 107.027 170.256 108.271C169.008 109.515 167.321 110.22 165.559 110.235C161.876 110.235 159.003 107.397 158.891 103.581C158.877 99.9193 162.01 96.9618 165.559 96.9055ZM226.843 96.9125C230.54 96.9125 233.462 99.9685 233.49 103.602C233.3 107.432 230.533 110.291 226.843 110.291C223.153 110.291 220.266 107.355 220.153 103.602C220.162 101.831 220.87 100.135 222.123 98.882C223.375 97.6295 225.071 96.9218 226.843 96.9125Z"
    fill="white" />
</svg>