<svg width="300" height="150" viewBox="0 0 300 150" fill="none" xmlns="http://www.w3.org/2000/svg">
  <rect width="300" height="150" fill="black" />
  <path
    d="M70.7345 64.2338H64.5378L60.6693 86.0056H56.15L59.9895 64.2338H53.7639L54.4364 60.4955H71.407L70.7345 64.2338Z"
    fill="#FFFBFB" />
  <path
    d="M91.0384 66.9381C91.0234 68.3944 90.8783 69.8463 90.6047 71.2766L89.8815 75.5573C88.3487 84.2848 85.9769 86.0056 79.2234 86.0056H68.8472L73.3303 60.51H82.188C88.6162 60.51 91.0384 62.1224 91.0384 66.9381ZM86.5264 67.6179C86.5264 64.7255 85.1454 64.2483 81.5083 64.2483H77.1698L74.0317 82.2674H78.3123C83.3738 82.2674 84.4078 81.2551 85.384 75.5645L86.107 71.2839C86.3509 70.076 86.4913 68.8495 86.5264 67.6179Z"
    fill="#FFFBFB" />
  <path
    d="M108.284 70.445C108.282 70.9422 108.236 71.4384 108.146 71.9274L107.669 74.5882C107.134 77.5819 106.02 78.6302 103.222 78.6302H95.825L95.6515 79.6715C95.5587 80.1485 95.5031 80.632 95.4851 81.1176C95.4851 82.2962 96.0925 82.5639 98.0449 82.5639H104.813L103.432 85.9695H97.235C92.8965 85.9695 91.313 84.856 91.313 82.13C91.33 81.3395 91.4074 80.5515 91.5444 79.7727L92.8604 72.2239C93.6702 67.5816 95.6225 66.6345 100.568 66.6345H102.86C106.396 66.6706 108.284 67.6179 108.284 70.445ZM104.075 71.0525C104.075 70.2426 103.569 70.0401 102.022 70.0401H99.6284C98.081 70.0401 97.3362 70.2426 96.9675 72.26L96.4324 75.362H102.152C102.332 75.3904 102.516 75.3792 102.691 75.3292C102.866 75.2792 103.028 75.1916 103.166 75.0725C103.303 74.9534 103.413 74.8056 103.488 74.6395C103.563 74.4735 103.6 74.2931 103.598 74.111L103.967 71.9419C104.019 71.6481 104.048 71.3507 104.054 71.0525H104.075Z"
    fill="#FFFBFB" />
  <path
    d="M108.515 82.6H116.469C117.785 82.6 118.024 82.3975 118.255 81.0888L118.559 79.3027C118.614 79.0481 118.648 78.7894 118.66 78.5291C118.66 78.088 118.421 78.0229 117.648 78.0229H113.779C110.815 78.0229 109.838 77.4516 109.838 75.5282C109.87 74.5902 109.981 73.6565 110.171 72.7372L110.446 71.2188C111.118 67.343 112.123 66.8802 115.934 66.8802H124.452L123.006 70.2787H115.905C114.589 70.2787 114.35 70.4812 114.119 71.7972L113.852 73.3085C113.793 73.5625 113.759 73.8216 113.75 74.0821C113.75 74.5233 113.982 74.5883 114.755 74.5883H118.797C121.762 74.5883 122.738 75.1595 122.738 77.0829C122.706 78.0234 122.595 78.9595 122.406 79.8813L122.03 81.9999C121.429 85.4995 120.417 85.9768 116.44 85.9768H109.115L108.515 82.6Z"
    fill="#FFFBFB" />
  <path
    d="M127.98 66.9093H132.16L128.826 86.0056H124.647L127.98 66.9093ZM129.231 59.4688H133.57L132.796 63.8072H128.458L129.231 59.4688Z"
    fill="#FFFBFB" />
  <path
    d="M150.483 71.0814C150.433 72.2964 150.285 73.5054 150.041 74.6968L147.951 86.5046C147.141 91.0889 145.161 92 141.285 92H134.011L133.403 88.5581H140.345C142.97 88.5581 143.476 88.3629 143.96 85.3983L144.191 84.0823H139.347C135.067 84.0823 133.281 82.9036 133.281 79.6715C133.33 78.4565 133.477 77.2474 133.722 76.0561L134.228 73.2579C135.204 67.8709 136.448 66.6561 142.073 66.6561H144.394C148.696 66.6706 150.483 67.8493 150.483 71.0814ZM144.821 80.6839L145.863 74.6534C146.078 73.7023 146.214 72.7348 146.268 71.761C146.268 70.3149 145.544 70.0474 143.375 70.0474H141.863C139.304 70.0474 138.899 70.821 138.458 73.2795L137.952 76.0779C137.749 77.0313 137.614 77.9978 137.547 78.9701C137.547 80.4163 138.27 80.6911 140.482 80.6911L144.821 80.6839Z"
    fill="#FFFBFB" />
  <path
    d="M169.709 70.3439C169.632 71.7245 169.451 73.0975 169.167 74.4509L167.15 86.0201H162.97L165.024 74.4509C165.207 73.5742 165.321 72.6845 165.364 71.79C165.364 70.6114 164.857 70.3439 163.274 70.3439H158.357L155.631 85.9767H151.459L154.792 66.8802H164.069C168.357 66.9092 169.709 67.9142 169.709 70.3439Z"
    fill="#FFFBFB" />
  <path
    d="M27.9645 85.9768H22.1004C22.0032 85.9766 21.9072 85.9558 21.8189 85.9154C21.7305 85.8751 21.6518 85.8163 21.5881 85.743C21.5243 85.6696 21.4771 85.5835 21.4495 85.4904C21.4218 85.3973 21.4145 85.2993 21.4279 85.2031L22.5704 78.7533H29.8012L28.6225 85.4345C28.5912 85.5864 28.5088 85.723 28.3891 85.8216C28.2695 85.9203 28.1196 85.975 27.9645 85.9768Z"
    fill="#009BFF" />
  <path
    d="M44.4724 64.2338H25.1228L26.3954 57.003H45.4846C45.5893 56.9931 45.6946 57.0077 45.7925 57.0458C45.8904 57.0839 45.9779 57.1443 46.0483 57.2224C46.1185 57.3004 46.1695 57.3938 46.1973 57.4951C46.225 57.5964 46.2285 57.7027 46.2078 57.8057L45.1376 63.6915C45.1086 63.8459 45.0259 63.985 44.9041 64.0843C44.7824 64.1835 44.6294 64.2365 44.4724 64.2338Z"
    fill="url(#paint0_linear_1_19)" />
  <path
    d="M25.1227 64.2339H18.6873C18.5888 64.235 18.4913 64.2147 18.4015 64.1744C18.3116 64.1341 18.2316 64.0748 18.167 64.0005C18.1024 63.9262 18.0546 63.8388 18.0271 63.7443C17.9996 63.6497 17.9929 63.5504 18.0076 63.453L19.056 57.5599C19.0847 57.4041 19.1668 57.2633 19.2883 57.1616C19.4097 57.0599 19.5629 57.0039 19.7213 57.0031H26.3953L25.1227 64.2339Z"
    fill="#0064FF" />
  <path d="M29.8082 78.7315H22.563L25.1227 64.2483H32.3679L29.8082 78.7315Z" fill="url(#paint1_linear_1_19)" />
  <path
    d="M261.72 59.0365L243.299 85.3255C243.104 85.6042 242.821 85.813 242.494 85.9202C242.168 86.0274 241.814 86.0264 241.488 85.9187C241.162 85.8105 240.881 85.6007 240.687 85.3215C240.494 85.0417 240.398 84.7076 240.416 84.37L241.153 69.8558L229.251 67.3644C228.996 67.3112 228.759 67.1972 228.561 67.0324C228.362 66.8677 228.208 66.6573 228.112 66.4198C228.016 66.1824 227.981 65.9253 228.01 65.6713C228.039 65.4173 228.132 65.1742 228.279 64.9635L246.701 38.6745C246.897 38.3956 247.179 38.1869 247.506 38.0798C247.833 37.9728 248.186 37.9734 248.512 38.0815C248.838 38.1896 249.119 38.3993 249.313 38.6788C249.506 38.9583 249.602 39.2923 249.584 39.6302L248.847 54.1446L260.749 56.6358C261.004 56.689 261.241 56.8031 261.44 56.9678C261.638 57.1326 261.792 57.343 261.888 57.5804C261.984 57.8178 262.019 58.0749 261.99 58.3289C261.961 58.583 261.868 58.8261 261.72 59.0367V59.0365Z"
    fill="#FCC72B" />
  <path
    d="M242.545 107C242.068 107.001 241.597 106.905 241.156 106.719C240.716 106.532 240.316 106.259 239.98 105.914L223.055 88.6117C222.378 87.9159 221.999 86.9739 222 85.9923C222.001 85.0107 222.383 84.0692 223.062 83.3754C223.741 82.6812 224.662 82.2905 225.622 82.289C226.582 82.288 227.503 82.6756 228.184 83.3678L242.545 98.0483L273.83 66.0648C274.512 65.3787 275.431 64.996 276.388 65C277.345 65.004 278.261 65.3943 278.937 66.086C279.614 66.7777 279.996 67.7146 280 68.6928C280.003 69.671 279.629 70.6111 278.958 71.3083L245.109 105.914C244.773 106.259 244.373 106.532 243.933 106.719C243.493 106.905 243.021 107.001 242.545 107Z"
    fill="#729B1B" />
  <path
    d="M242.455 107C242.932 107.001 243.403 106.905 243.844 106.719C244.284 106.532 244.683 106.259 245.02 105.914L261.945 88.6117C262.622 87.9159 263.001 86.9739 263 85.9923C262.999 85.0107 262.617 84.0692 261.938 83.3754C261.259 82.6812 260.338 82.2905 259.378 82.289C258.418 82.288 257.497 82.6756 256.816 83.3678L242.455 98.0483L211.17 66.0648C210.488 65.3787 209.569 64.996 208.612 65C207.655 65.004 206.739 65.3943 206.062 66.086C205.386 66.7777 205.004 67.7146 205 68.6928C204.996 69.671 205.37 70.6111 206.041 71.3083L239.891 105.914C240.227 106.259 240.627 106.532 241.067 106.719C241.507 106.905 241.979 107.001 242.455 107Z"
    fill="#729B1B" fill-opacity="0.5" />
  <defs>
    <linearGradient id="paint0_linear_1_19" x1="25.7434" y1="60.6257" x2="45.039" y2="64.0989"
      gradientUnits="userSpaceOnUse">
      <stop offset="0.03" stop-color="#E9FFFF" />
      <stop offset="0.17" stop-color="#C4FAC9" />
      <stop offset="0.33" stop-color="#A0F694" />
      <stop offset="0.48" stop-color="#82F269" />
      <stop offset="0.63" stop-color="#6AEF47" />
      <stop offset="0.76" stop-color="#5AED2F" />
      <stop offset="0.89" stop-color="#4FEB20" />
      <stop offset="1" stop-color="#4CEB1B" />
    </linearGradient>
    <linearGradient id="paint1_linear_1_19" x1="28.7365" y1="63.7204" x2="28.8734" y2="77.3475"
      gradientUnits="userSpaceOnUse">
      <stop stop-color="#009BFF" />
      <stop offset="0.35" stop-color="#0081FE" />
      <stop offset="0.75" stop-color="#006AFD" />
      <stop offset="1" stop-color="#0062FD" />
    </linearGradient>
  </defs>
</svg>