<svg width="300" height="150" viewBox="0 0 300 150" fill="none" xmlns="http://www.w3.org/2000/svg">
  <rect width="300" height="150" fill="black" />
  <path d="M129.518 87.3242H133.559L120.952 111.774H116.039L113 87.3242H117.299L119.594 106.832L129.518 87.3242Z"
    fill="#42B883" />
  <path
    d="M145.39 93.4609H149.398L146.165 111.774H137.082C135.811 111.774 134.787 111.677 134.011 111.483C133.235 111.289 132.643 110.956 132.233 110.482C131.845 110.03 131.652 109.362 131.652 108.48C131.652 108.329 131.662 108.038 131.684 107.607C131.727 107.155 131.889 106.133 132.169 104.539L134.108 93.4609H138.117L136.145 104.539C135.929 105.745 135.821 106.595 135.821 107.091C135.821 107.629 135.962 107.995 136.242 108.189C136.522 108.361 137.05 108.447 137.826 108.447H142.739L145.39 93.4609Z"
    fill="#42B883" />
  <path
    d="M162.49 93.2348C163.805 93.2348 164.829 93.3747 165.561 93.6547C166.294 93.913 166.833 94.3114 167.177 94.8497C167.522 95.3665 167.695 96.034 167.695 96.8522C167.695 97.3474 167.652 97.8211 167.565 98.2733L167.113 100.825C166.854 102.267 166.412 103.28 165.787 103.861C165.163 104.421 164.182 104.701 162.846 104.701H155.734L155.573 105.702C155.465 106.305 155.411 106.778 155.411 107.123C155.411 107.661 155.584 108.027 155.928 108.221C156.273 108.415 156.92 108.512 157.868 108.512H164.365L163.04 111.774H157.092C156.316 111.774 155.573 111.72 154.862 111.612C154.15 111.526 153.536 111.354 153.019 111.096C152.523 110.859 152.125 110.504 151.823 110.03C151.543 109.556 151.403 108.91 151.403 108.092C151.403 107.489 151.478 106.735 151.629 105.831L152.89 98.5963C153.105 97.3474 153.429 96.3354 153.86 95.5602C154.312 94.7851 154.991 94.2037 155.896 93.8161C156.801 93.4286 158.267 93.2348 160.292 93.2348H162.49ZM163.557 98.2733C163.622 97.8857 163.654 97.6058 163.654 97.4335C163.654 97.0675 163.514 96.8199 163.234 96.6907C162.954 96.54 162.436 96.4646 161.682 96.4646H159.387C158.784 96.4646 158.31 96.5292 157.965 96.6584C157.642 96.7876 157.394 97.0352 157.221 97.4012C157.049 97.7458 156.92 98.1441 156.833 98.5963L156.316 101.568H161.812C162.243 101.568 162.566 101.482 162.781 101.309C162.997 101.116 163.137 100.803 163.201 100.373L163.557 98.2733Z"
    fill="#42B883" />
  <path d="M182.386 108.189H191.986L190.499 111.774H177.408L181.707 87.3242H186.038L182.386 108.189Z" fill="#42B883" />
  <path
    d="M200.312 112C198.243 112 196.756 111.677 195.851 111.031C194.946 110.385 194.493 109.298 194.493 107.769C194.493 107.058 194.633 105.906 194.913 104.313L195.754 99.5652C195.991 98.2302 196.26 97.1644 196.562 96.3677C196.885 95.5495 197.316 94.9143 197.855 94.4621C198.394 94.0099 199.094 93.6977 199.956 93.5255C200.818 93.3317 201.939 93.2348 203.318 93.2348H205.548C207.617 93.2348 209.104 93.5578 210.009 94.2037C210.914 94.8497 211.367 95.9371 211.367 97.4658C211.367 98.1764 211.227 99.3284 210.947 100.922L210.106 105.67C209.869 107.005 209.589 108.081 209.266 108.899C208.964 109.696 208.544 110.32 208.005 110.773C207.466 111.225 206.766 111.537 205.904 111.709C205.042 111.903 203.921 112 202.542 112H200.312ZM201.346 108.738H202.801C203.404 108.738 203.921 108.684 204.352 108.576C204.783 108.447 205.128 108.2 205.387 107.834C205.667 107.467 205.904 106.735 206.098 105.637L206.938 100.889C207.197 99.4899 207.326 98.564 207.326 98.1118C207.326 97.4443 207.121 97.0029 206.712 96.7876C206.324 96.5723 205.591 96.4646 204.514 96.4646H203.059C202.456 96.4646 201.939 96.5292 201.508 96.6584C201.077 96.766 200.721 97.0029 200.441 97.3689C200.182 97.735 199.956 98.4671 199.762 99.5652L198.922 104.313C198.663 105.691 198.534 106.617 198.534 107.091C198.534 107.758 198.728 108.2 199.116 108.415C199.525 108.63 200.269 108.738 201.346 108.738Z"
    fill="#42B883" />
  <path
    d="M225.031 93.4609C226.842 93.4609 228.135 93.73 228.91 94.2683C229.708 94.7851 230.106 95.6248 230.106 96.7876C230.106 97.3043 229.966 98.3594 229.686 99.9528L227.617 111.774H217.92C216.972 111.774 216.196 111.666 215.593 111.451C214.989 111.236 214.537 110.88 214.235 110.385C213.955 109.911 213.815 109.287 213.815 108.512C213.815 107.952 213.912 107.091 214.106 105.928L214.3 104.83C214.493 103.753 214.741 102.913 215.043 102.311C215.345 101.686 215.733 101.234 216.207 100.954C216.702 100.653 217.295 100.459 217.985 100.373C218.696 100.287 219.665 100.243 220.894 100.243H225.743L225.84 99.6621C225.99 98.8654 226.066 98.3164 226.066 98.0149C226.066 97.5412 225.893 97.2075 225.549 97.0137C225.204 96.8199 224.579 96.723 223.674 96.723H217.176L216.627 93.4609H225.031ZM219.051 108.512H224.288L225.193 103.344H220.15C219.482 103.344 219.019 103.452 218.76 103.667C218.523 103.882 218.351 104.313 218.243 104.959L217.985 106.412C217.898 106.865 217.855 107.241 217.855 107.543C217.855 107.823 217.92 108.06 218.049 108.253C218.179 108.426 218.513 108.512 219.051 108.512Z"
    fill="#42B883" />
  <path
    d="M247.331 86H251.339L246.781 111.774H238.668C236.599 111.774 235.112 111.44 234.207 110.773C233.302 110.127 232.849 109.05 232.849 107.543C232.849 106.832 232.989 105.68 233.269 104.087L234.013 99.7913C234.228 98.4778 234.498 97.4228 234.821 96.6261C235.144 95.8079 235.575 95.1727 236.114 94.7205C236.653 94.2468 237.353 93.9238 238.215 93.7516C239.099 93.5578 240.219 93.4609 241.577 93.4609H246.005L247.331 86ZM239.767 108.512H243.355L245.423 96.723H241.35C240.747 96.723 240.23 96.7768 239.799 96.8845C239.389 96.9921 239.045 97.229 238.764 97.595C238.484 97.9611 238.247 98.6932 238.053 99.7913L237.278 104.152C237.04 105.422 236.922 106.326 236.922 106.865C236.922 107.532 237.127 107.973 237.536 108.189C237.946 108.404 238.689 108.512 239.767 108.512Z"
    fill="#42B883" />
  <path
    d="M263.032 93.2348C264.347 93.2348 265.371 93.3747 266.103 93.6547C266.836 93.913 267.375 94.3114 267.72 94.8497C268.064 95.3665 268.237 96.034 268.237 96.8522C268.237 97.3474 268.194 97.8211 268.108 98.2733L267.655 100.825C267.396 102.267 266.955 103.28 266.33 103.861C265.705 104.421 264.724 104.701 263.388 104.701H256.277L256.115 105.702C256.007 106.305 255.953 106.778 255.953 107.123C255.953 107.661 256.126 108.027 256.471 108.221C256.815 108.415 257.462 108.512 258.41 108.512H264.907L263.582 111.774H257.634C256.858 111.774 256.115 111.72 255.404 111.612C254.693 111.526 254.078 111.354 253.561 111.096C253.066 110.859 252.667 110.504 252.365 110.03C252.085 109.556 251.945 108.91 251.945 108.092C251.945 107.489 252.02 106.735 252.171 105.831L253.432 98.5963C253.647 97.3474 253.971 96.3354 254.402 95.5602C254.854 94.7851 255.533 94.2037 256.438 93.8161C257.343 93.4286 258.809 93.2348 260.834 93.2348H263.032ZM264.099 98.2733C264.164 97.8857 264.196 97.6058 264.196 97.4335C264.196 97.0675 264.056 96.8199 263.776 96.6907C263.496 96.54 262.979 96.4646 262.224 96.4646H259.929C259.326 96.4646 258.852 96.5292 258.507 96.6584C258.184 96.7876 257.936 97.0352 257.764 97.4012C257.591 97.7458 257.462 98.1441 257.376 98.5963L256.858 101.568H262.354C262.785 101.568 263.108 101.482 263.323 101.309C263.539 101.116 263.679 100.803 263.744 100.373L264.099 98.2733Z"
    fill="#42B883" />
  <path
    d="M269.23 111.774L271.428 99.3714C271.708 97.7565 272.031 96.583 272.397 95.8509C272.785 95.1188 273.259 94.5913 273.82 94.2683C274.38 93.9238 275.059 93.7085 275.856 93.6224C276.675 93.5147 277.569 93.4609 278.539 93.4609H283L281.61 96.7876H278.668C277.526 96.7876 276.783 96.9383 276.438 97.2398C276.093 97.5197 275.856 97.8642 275.727 98.2733C275.619 98.6824 275.522 99.1238 275.436 99.5975L273.27 111.774H269.23Z"
    fill="#42B883" />
  <path d="M77.6375 33.1875L67 51.4438L56.3625 33.1875H21L67 112.25L113 33.1875H77.6375Z" fill="#42B883" />
  <path d="M77.6375 33.1875L67 51.4438L56.3625 33.1875H39.4L67 80.625L94.6 33.1875H77.6375Z" fill="#35495E" />
</svg>