<svg width="300" height="150" viewBox="0 0 300 150" fill="none" xmlns="http://www.w3.org/2000/svg">
  <rect width="300" height="150" fill="black" />
  <path
    d="M50.9787 112.557H55.5657L60.2418 96.9747H55.7868L53.0181 108.03L50.0481 96.9747H46.1772L43.1973 108.03L40.455 96.9747H36L40.6497 112.557H45.2367L48.1292 102.575L50.9787 112.557ZM60.4827 104.811C60.4827 109.487 63.6672 112.945 68.6799 112.945C72.5574 112.945 74.6413 110.619 75.237 109.52L72.5227 107.462C72.0772 108.119 70.8563 109.369 68.736 109.369C66.4392 109.369 64.771 107.88 64.6819 105.794H75.6544C75.6825 105.494 75.6825 105.2 75.6825 104.898C75.6825 99.8044 72.9402 96.582 68.114 96.582C63.6705 96.582 60.4844 100.096 60.4844 104.807L60.4827 104.811ZM64.8057 103.111C64.9839 101.326 66.2346 99.9529 68.175 99.9529C70.056 99.9529 71.4222 101.204 71.5113 103.111H64.8057ZM77.2351 112.559H81.1127V110.952C81.5301 111.458 83.0811 112.932 85.7326 112.932C90.1876 112.932 93.3622 109.566 93.3622 104.768C93.3622 99.9414 90.4418 96.577 85.9703 96.577C83.2907 96.577 81.738 98.067 81.3503 98.6016V91H77.2418V112.557L77.2351 112.559ZM81.2282 104.812C81.2282 101.892 82.9574 100.225 85.2212 100.225C87.6071 100.225 89.2141 102.106 89.2141 104.812C89.2141 107.581 87.5477 109.312 85.2212 109.312C82.7181 109.312 81.2282 107.282 81.2282 104.812ZM94.9644 118.131H99.0729V110.947C99.4623 111.453 101.008 112.927 103.693 112.927C108.148 112.927 111.085 109.561 111.085 104.736C111.085 99.9711 107.927 96.5721 103.455 96.5721C100.802 96.5721 99.2511 98.062 98.8353 98.5966V96.9565H94.9578V118.116L94.9644 118.131ZM98.9574 104.723C98.9574 102.248 100.447 100.224 102.95 100.224C105.277 100.224 106.943 101.953 106.943 104.723C106.943 107.437 105.336 109.31 102.95 109.31C100.687 109.31 98.9574 107.644 98.9574 104.723ZM111.831 107.731C111.831 111.006 114.51 112.945 117.672 112.945C119.462 112.945 120.652 112.41 121.458 111.542L121.726 112.554H125.362V102.687C125.362 99.2005 123.872 96.582 118.866 96.582C116.687 96.6101 114.56 97.2499 112.727 98.4283L114.278 101.233C115.439 100.639 116.868 100.133 118.419 100.133C120.237 100.133 121.249 101.057 121.249 102.43V103.441C120.681 103.052 119.459 102.58 117.88 102.58C114.243 102.575 111.829 104.659 111.829 107.728L111.831 107.731ZM115.939 107.609C115.939 106.33 117.04 105.434 118.619 105.434C120.198 105.434 121.333 106.243 121.333 107.609C121.333 108.921 120.198 109.754 118.653 109.754C117.109 109.754 115.939 108.893 115.939 107.609ZM135.343 109.308C132.753 109.308 130.888 107.427 130.888 104.782C130.888 102.279 132.528 100.222 135.182 100.222C136.939 100.222 138.151 101.083 138.818 101.712L139.98 98.2534C138.968 97.4812 137.356 96.5869 135.063 96.5869C130.324 96.5869 126.776 100.073 126.776 104.812C126.776 109.551 130.235 112.947 135.092 112.947C137.356 112.947 139.057 111.996 139.947 111.28L138.846 107.914C138.156 108.475 136.906 109.31 135.327 109.31L135.343 109.308ZM141.511 112.556H145.619V104.509L150.833 112.556H155.66L149.759 104.03L155.242 96.9681H150.622L145.618 103.525V91.0132H141.509L141.511 112.556Z"
    fill="white" />
  <path
    d="M114.075 71.5156L92.245 83.8659V74.2497L105.848 66.7653L114.075 71.5156ZM115.569 70.1626V44.3401L107.583 48.9552V65.5542L115.569 70.1626ZM68.4949 71.5156L90.3244 83.8659V74.2497L76.7185 66.7636L68.4949 71.5156ZM67 70.1626V44.3401L74.986 48.9552V65.5542L67 70.1626ZM67.9372 42.6654L90.3277 30V39.2944L75.8671 47.2507L67.9372 42.6654ZM114.632 42.6654L92.2417 30V39.2944L106.702 47.2441L114.632 42.6654Z"
    fill="#8ED6FB" />
  <path
    d="M91.0111 72.5289L77.5884 65.1451V50.5261L91.0111 58.2745V72.5289ZM92.9284 72.5289L106.351 65.1534V50.5278L92.9284 58.2762V72.5289ZM78.4975 48.8382L91.9714 41.433L105.445 48.8382L91.9714 56.6163L78.4975 48.8382Z"
    fill="#1C78C0" />
  <path
    d="M261.156 49.6083L228.395 108.246C227.719 109.456 225.981 109.463 225.294 108.259L191.884 49.614C191.136 48.3011 192.258 46.7108 193.744 46.9768L226.54 52.8444C226.749 52.8818 226.963 52.8814 227.172 52.8433L259.282 46.9852C260.764 46.7149 261.89 48.2929 261.156 49.6083Z"
    fill="url(#paint0_linear_611_37)" />
  <path
    d="M242.162 39.2806L217.918 44.0356C217.52 44.1137 217.225 44.4517 217.201 44.8574L215.709 70.0687C215.674 70.6625 216.219 71.1234 216.798 70.9897L223.548 69.4305C224.18 69.2847 224.75 69.8415 224.62 70.4772L222.615 80.3064C222.48 80.968 223.101 81.5336 223.746 81.3374L227.915 80.0696C228.561 79.8732 229.182 80.4404 229.046 81.1025L225.859 96.5421C225.659 97.5078 226.943 98.0345 227.478 97.2065L227.835 96.6535L247.591 57.191C247.921 56.5303 247.351 55.7769 246.626 55.9169L239.678 57.2591C239.025 57.3851 238.47 56.7765 238.654 56.1371L243.189 40.402C243.373 39.7615 242.816 39.1524 242.162 39.2806Z"
    fill="url(#paint1_linear_611_37)" />
  <defs>
    <linearGradient id="paint0_linear_611_37" x1="191.068" y1="44.8812" x2="231.892" y2="100.27"
      gradientUnits="userSpaceOnUse">
      <stop stop-color="#41D1FF" />
      <stop offset="1" stop-color="#BD34FE" />
    </linearGradient>
    <linearGradient id="paint1_linear_611_37" x1="224.657" y1="40.5715" x2="232.047" y2="91.2139"
      gradientUnits="userSpaceOnUse">
      <stop stop-color="#FFEA83" />
      <stop offset="0.0833333" stop-color="#FFDD35" />
      <stop offset="1" stop-color="#FFA800" />
    </linearGradient>
  </defs>
</svg>