<svg class="figmaLogo" width="65" height="97" viewBox="0 0 65 97" fill="none" xmlns="http://www.w3.org/2000/svg">
  <g clip-path="url(#clip0_612_29)">
    <path
      d="M32.5 48.5C32.5 39.5709 39.7749 32.3333 48.75 32.3333C57.7251 32.3333 65 39.5709 65 48.5C65 57.4291 57.7251 64.6667 48.75 64.6667C39.7749 64.6667 32.5 57.4291 32.5 48.5Z"
      fill="#1ABCFE" />
    <path
      d="M0 80.8333C0 71.9042 7.27487 64.6667 16.25 64.6667H32.5V80.8333C32.5 89.7624 25.2251 97 16.25 97C7.27487 97 0 89.7624 0 80.8333Z"
      fill="#0ACF83" />
    <path d="M32.5 0V32.3333H48.75C57.7251 32.3333 65 25.0958 65 16.1667C65 7.23756 57.7251 0 48.75 0H32.5Z"
      fill="#FF7262" />
    <path d="M0 16.1667C0 25.0958 7.27487 32.3333 16.25 32.3333H32.5V0H16.25C7.27487 0 0 7.23756 0 16.1667Z"
      fill="#F24E1E" />
    <path d="M0 48.5C0 57.4291 7.27487 64.6667 16.25 64.6667H32.5V32.3333H16.25C7.27487 32.3333 0 39.5709 0 48.5Z"
      fill="#A259FF" />
  </g>
  <defs>
    <clipPath id="clip0_612_29">
      <rect width="65" height="97" fill="white" />
    </clipPath>
  </defs>
</svg>