<svg width="226" height="219" viewBox="0 0 226 219" fill="none" xmlns="http://www.w3.org/2000/svg">
<rect width="226" height="219" fill="white"/>
<path d="M211.354 172.354C211.549 172.158 211.549 171.842 211.354 171.646L208.172 168.464C207.976 168.269 207.66 168.269 207.464 168.464C207.269 168.66 207.269 168.976 207.464 169.172L210.293 172L207.464 174.828C207.269 175.024 207.269 175.34 207.464 175.536C207.66 175.731 207.976 175.731 208.172 175.536L211.354 172.354ZM11 172.5H211V171.5H11V172.5Z" fill="black"/>
<path d="M46.3536 8.64871C46.1583 8.45345 45.8417 8.45345 45.6464 8.64871L42.4645 11.8307C42.2692 12.026 42.2692 12.3425 42.4645 12.5378C42.6597 12.733 42.9763 12.733 43.1716 12.5378L46 9.70937L48.8284 12.5378C49.0237 12.733 49.3403 12.733 49.5355 12.5378C49.7308 12.3425 49.7308 12.026 49.5355 11.8307L46.3536 8.64871ZM46.5 209.002L46.5 9.00226H45.5L45.5 209.002H46.5Z" fill="black"/>
<path d="M72.4946 136.927C72.4543 136.654 72.2002 136.465 71.927 136.505L67.4752 137.162C67.202 137.202 67.0132 137.457 67.0535 137.73C67.0939 138.003 67.348 138.192 67.6212 138.151L71.5783 137.568L72.1622 141.525C72.2025 141.798 72.4566 141.987 72.7298 141.946C73.003 141.906 73.1918 141.652 73.1515 141.379L72.4946 136.927ZM46.4014 172.298L72.4014 137.298L71.5986 136.702L45.5986 171.702L46.4014 172.298Z" fill="#F9055D"/>
<path d="M22.2727 127.455L19.8523 134H18.8295L16.4091 127.455H17.5L19.3068 132.67H19.375L21.1818 127.455H22.2727ZM26.6513 125.273V134H25.5945V126.381H25.5433L23.4126 127.795V126.722L25.5945 125.273H26.6513ZM29.5362 130.318C29.5362 129.244 29.6754 128.257 29.9538 127.357C30.2351 126.453 30.6357 125.622 31.1555 124.864H32.0419C31.8374 125.145 31.6456 125.491 31.4666 125.903C31.2905 126.312 31.1357 126.763 31.0021 127.254C30.8686 127.743 30.7635 128.249 30.6868 128.771C30.6129 129.294 30.576 129.81 30.576 130.318C30.576 130.994 30.6413 131.68 30.772 132.376C30.9027 133.072 31.0788 133.719 31.3004 134.315C31.522 134.912 31.7692 135.398 32.0419 135.773H31.1555C30.6357 135.014 30.2351 134.185 29.9538 133.284C29.6754 132.381 29.5362 131.392 29.5362 130.318ZM34.2759 127.455L35.8441 130.131L37.4123 127.455H38.5714L36.4577 130.727L38.5714 134H37.4123L35.8441 131.46L34.2759 134H33.1168L35.1964 130.727L33.1168 127.455H34.2759ZM43.0575 125.273V134H42.0007V126.381H41.9496L39.8189 127.795V126.722L42.0007 125.273H43.0575ZM46.5689 132.807L46.5007 133.267C46.4524 133.591 46.3786 133.938 46.2791 134.307C46.1825 134.676 46.0817 135.024 45.9766 135.351C45.8714 135.678 45.7848 135.938 45.7166 136.131H44.9496C44.9865 135.949 45.0348 135.709 45.0945 135.411C45.1541 135.112 45.2138 134.778 45.2734 134.409C45.3359 134.043 45.3871 133.668 45.4268 133.284L45.478 132.807H46.5689ZM49.0799 136.455C48.9094 136.455 48.7575 136.44 48.6239 136.412C48.4904 136.386 48.3981 136.361 48.3469 136.335L48.6026 135.449C48.8469 135.511 49.0629 135.534 49.2504 135.517C49.4379 135.5 49.604 135.416 49.7489 135.266C49.8967 135.118 50.0316 134.878 50.1538 134.545L50.3413 134.034L47.9208 127.455H49.0117L50.8185 132.67H50.8867L52.6935 127.455H53.7844L51.006 134.955C50.881 135.293 50.7262 135.572 50.5415 135.794C50.3569 136.018 50.1424 136.185 49.8981 136.293C49.6566 136.401 49.3839 136.455 49.0799 136.455ZM58.163 125.273V134H57.1062V126.381H57.055L54.9244 127.795V126.722L57.1062 125.273H58.163ZM62.8377 129.636C62.8377 130.71 62.6971 131.699 62.4158 132.602C62.1374 133.503 61.7383 134.332 61.2184 135.091H60.332C60.5366 134.81 60.7269 134.463 60.9031 134.051C61.082 133.642 61.2383 133.193 61.3718 132.705C61.5053 132.213 61.609 131.706 61.6829 131.183C61.7596 130.658 61.7979 130.142 61.7979 129.636C61.7979 128.96 61.7326 128.274 61.6019 127.578C61.4712 126.882 61.2951 126.236 61.0735 125.639C60.8519 125.043 60.6048 124.557 60.332 124.182H61.2184C61.7383 124.94 62.1374 125.771 62.4158 126.675C62.6971 127.575 62.8377 128.562 62.8377 129.636Z" fill="black"/>
<path d="M167.273 124.455L164.852 131H163.83L161.409 124.455H162.5L164.307 129.67H164.375L166.182 124.455H167.273ZM168.583 131V130.233L171.464 127.08C171.802 126.71 172.08 126.389 172.299 126.116C172.518 125.841 172.68 125.582 172.785 125.341C172.893 125.097 172.947 124.841 172.947 124.574C172.947 124.267 172.873 124.001 172.725 123.777C172.58 123.553 172.381 123.379 172.129 123.257C171.876 123.135 171.592 123.074 171.276 123.074C170.941 123.074 170.648 123.143 170.398 123.283C170.151 123.419 169.96 123.611 169.823 123.858C169.69 124.105 169.623 124.395 169.623 124.727H168.617C168.617 124.216 168.735 123.767 168.971 123.381C169.207 122.994 169.528 122.693 169.934 122.477C170.343 122.261 170.802 122.153 171.31 122.153C171.822 122.153 172.275 122.261 172.67 122.477C173.065 122.693 173.374 122.984 173.599 123.351C173.823 123.717 173.935 124.125 173.935 124.574C173.935 124.895 173.877 125.209 173.761 125.516C173.647 125.82 173.448 126.159 173.164 126.534C172.883 126.906 172.492 127.361 171.992 127.898L170.032 129.994V130.062H174.089V131H168.583ZM176.224 127.318C176.224 126.244 176.363 125.257 176.641 124.357C176.923 123.453 177.323 122.622 177.843 121.864H178.729C178.525 122.145 178.333 122.491 178.154 122.903C177.978 123.312 177.823 123.763 177.69 124.254C177.556 124.743 177.451 125.249 177.374 125.771C177.3 126.294 177.263 126.81 177.263 127.318C177.263 127.994 177.329 128.68 177.46 129.376C177.59 130.072 177.766 130.719 177.988 131.315C178.21 131.912 178.457 132.398 178.729 132.773H177.843C177.323 132.014 176.923 131.185 176.641 130.284C176.363 129.381 176.224 128.392 176.224 127.318ZM180.963 124.455L182.532 127.131L184.1 124.455H185.259L183.145 127.727L185.259 131H184.1L182.532 128.46L180.963 131H179.804L181.884 127.727L179.804 124.455H180.963ZM186.677 131V130.233L189.558 127.08C189.896 126.71 190.174 126.389 190.393 126.116C190.612 125.841 190.773 125.582 190.879 125.341C190.987 125.097 191.04 124.841 191.04 124.574C191.04 124.267 190.967 124.001 190.819 123.777C190.674 123.553 190.475 123.379 190.222 123.257C189.969 123.135 189.685 123.074 189.37 123.074C189.035 123.074 188.742 123.143 188.492 123.283C188.245 123.419 188.053 123.611 187.917 123.858C187.783 124.105 187.717 124.395 187.717 124.727H186.711C186.711 124.216 186.829 123.767 187.065 123.381C187.3 122.994 187.621 122.693 188.028 122.477C188.437 122.261 188.896 122.153 189.404 122.153C189.915 122.153 190.369 122.261 190.763 122.477C191.158 122.693 191.468 122.984 191.692 123.351C191.917 123.717 192.029 124.125 192.029 124.574C192.029 124.895 191.971 125.209 191.854 125.516C191.741 125.82 191.542 126.159 191.258 126.534C190.977 126.906 190.586 127.361 190.086 127.898L188.126 129.994V130.062H192.183V131H186.677ZM195.46 129.807L195.391 130.267C195.343 130.591 195.269 130.938 195.17 131.307C195.073 131.676 194.972 132.024 194.867 132.351C194.762 132.678 194.675 132.938 194.607 133.131H193.84C193.877 132.949 193.925 132.709 193.985 132.411C194.045 132.112 194.104 131.778 194.164 131.409C194.227 131.043 194.278 130.668 194.317 130.284L194.369 129.807H195.46ZM197.971 133.455C197.8 133.455 197.648 133.44 197.515 133.412C197.381 133.386 197.289 133.361 197.238 133.335L197.493 132.449C197.738 132.511 197.953 132.534 198.141 132.517C198.328 132.5 198.495 132.416 198.64 132.266C198.787 132.118 198.922 131.878 199.044 131.545L199.232 131.034L196.811 124.455H197.902L199.709 129.67H199.777L201.584 124.455H202.675L199.897 131.955C199.772 132.293 199.617 132.572 199.432 132.794C199.248 133.018 199.033 133.185 198.789 133.293C198.547 133.401 198.275 133.455 197.971 133.455ZM203.985 131V130.233L206.866 127.08C207.204 126.71 207.483 126.389 207.701 126.116C207.92 125.841 208.082 125.582 208.187 125.341C208.295 125.097 208.349 124.841 208.349 124.574C208.349 124.267 208.275 124.001 208.127 123.777C207.983 123.553 207.784 123.379 207.531 123.257C207.278 123.135 206.994 123.074 206.679 123.074C206.343 123.074 206.051 123.143 205.801 123.283C205.554 123.419 205.362 123.611 205.225 123.858C205.092 124.105 205.025 124.395 205.025 124.727H204.02C204.02 124.216 204.137 123.767 204.373 123.381C204.609 122.994 204.93 122.693 205.336 122.477C205.745 122.261 206.204 122.153 206.713 122.153C207.224 122.153 207.677 122.261 208.072 122.477C208.467 122.693 208.777 122.984 209.001 123.351C209.225 123.717 209.338 124.125 209.338 124.574C209.338 124.895 209.279 125.209 209.163 125.516C209.049 125.82 208.85 126.159 208.566 126.534C208.285 126.906 207.895 127.361 207.395 127.898L205.434 129.994V130.062H209.491V131H203.985ZM213.416 126.636C213.416 127.71 213.275 128.699 212.994 129.602C212.716 130.503 212.316 131.332 211.797 132.091H210.91C211.115 131.81 211.305 131.463 211.481 131.051C211.66 130.642 211.816 130.193 211.95 129.705C212.083 129.213 212.187 128.706 212.261 128.183C212.338 127.658 212.376 127.142 212.376 126.636C212.376 125.96 212.311 125.274 212.18 124.578C212.049 123.882 211.873 123.236 211.652 122.639C211.43 122.043 211.183 121.557 210.91 121.182H211.797C212.316 121.94 212.716 122.771 212.994 123.675C213.275 124.575 213.416 125.562 213.416 126.636Z" fill="black"/>
<path d="M185.487 86.114C185.55 85.8452 185.383 85.5762 185.114 85.5132L180.733 84.4869C180.464 84.4239 180.195 84.5908 180.132 84.8597C180.069 85.1286 180.236 85.3976 180.505 85.4605L184.399 86.3728L183.487 90.2674C183.424 90.5362 183.591 90.8053 183.86 90.8682C184.129 90.9312 184.398 90.7643 184.461 90.4954L185.487 86.114ZM48.2636 171.425L185.264 86.4249L184.736 85.5751L47.7364 170.575L48.2636 171.425Z" fill="#0702FF"/>
<path d="M142.415 67.2727L145.006 74.6193H145.108L147.699 67.2727H148.807L145.602 76H144.511L141.307 67.2727H142.415ZM153.081 67.2727V76H152.024V68.3807H151.973L149.842 69.7955V68.7216L152.024 67.2727H153.081ZM161.54 74.4659V68.8409H162.494V74.4659H161.54ZM159.205 72.1307V71.1761H164.83V72.1307H159.205ZM170.762 67.2727L173.353 74.6193H173.456L176.047 67.2727H177.154L173.95 76H172.859L169.654 67.2727H170.762ZM178.36 76V75.233L181.241 72.0795C181.579 71.7102 181.858 71.3892 182.076 71.1165C182.295 70.8409 182.457 70.5824 182.562 70.3409C182.67 70.0966 182.724 69.8409 182.724 69.5739C182.724 69.267 182.65 69.0014 182.502 68.777C182.358 68.5526 182.159 68.3793 181.906 68.2571C181.653 68.1349 181.369 68.0739 181.054 68.0739C180.718 68.0739 180.426 68.1435 180.176 68.2827C179.929 68.419 179.737 68.6108 179.6 68.858C179.467 69.1051 179.4 69.3949 179.4 69.7273H178.395C178.395 69.2159 178.512 68.767 178.748 68.3807C178.984 67.9943 179.305 67.6932 179.711 67.4773C180.12 67.2614 180.579 67.1534 181.088 67.1534C181.599 67.1534 182.052 67.2614 182.447 67.4773C182.842 67.6932 183.152 67.9844 183.376 68.3509C183.6 68.7173 183.713 69.125 183.713 69.5739C183.713 69.8949 183.654 70.2088 183.538 70.5156C183.424 70.8196 183.225 71.1591 182.941 71.5341C182.66 71.9062 182.27 72.3608 181.77 72.8977L179.809 74.9943V75.0625H183.866V76H178.36Z" fill="black"/>
<line x1="28.5985" y1="195.702" x2="126.599" y2="63.702" stroke="#FF0202" stroke-dasharray="2 2"/>
<line x1="102.599" y1="196.702" x2="200.599" y2="64.702" stroke="#FF0202" stroke-dasharray="2 2"/>
<line x1="8.79259" y1="189.545" x2="212.793" y2="96.5451" stroke="#FF0202" stroke-dasharray="2 2"/>
<line x1="8.79259" y1="165.545" x2="212.793" y2="72.5451" stroke="#FF0202" stroke-dasharray="2 2"/>
<path d="M161.468 120.176C161.565 119.917 161.434 119.629 161.176 119.532L156.964 117.948C156.705 117.851 156.417 117.982 156.32 118.24C156.223 118.499 156.353 118.787 156.612 118.884L160.356 120.292L158.948 124.036C158.851 124.295 158.982 124.583 159.24 124.68C159.499 124.777 159.787 124.647 159.884 124.388L161.468 120.176ZM46.2065 172.612L161.207 120.455L160.793 119.545L45.7935 171.701L46.2065 172.612Z" fill="#0FF2C9"/>
</svg>
