<svg width="300" height="300" viewBox="0 0 300 300" fill="none" xmlns="http://www.w3.org/2000/svg">
  <rect width="300" height="300" fill="white" />
  <path
    d="M275.707 20.7071C276.098 20.3166 276.098 19.6834 275.707 19.2929L269.343 12.9289C268.953 12.5384 268.319 12.5384 267.929 12.9289C267.538 13.3194 267.538 13.9526 267.929 14.3431L273.586 20L267.929 25.6568C267.538 26.0474 267.538 26.6805 267.929 27.071C268.319 27.4616 268.953 27.4616 269.343 27.071L275.707 20.7071ZM15 21L275 21L275 19L15 19L15 21Z"
    fill="black" />
  <path
    d="M19.2929 275.707C19.6834 276.098 20.3166 276.098 20.7071 275.707L27.0711 269.343C27.4616 268.953 27.4616 268.319 27.0711 267.929C26.6806 267.538 26.0474 267.538 25.6569 267.929L20 273.586L14.3432 267.929C13.9526 267.538 13.3195 267.538 12.9289 267.929C12.5384 268.319 12.5384 268.953 12.9289 269.343L19.2929 275.707ZM19 15L19 275L21 275L21 15L19 15Z"
    fill="black" />
  <path
    d="M19.75 12.1193C19.108 12.1193 18.5611 11.9446 18.1094 11.5952C17.6577 11.2429 17.3125 10.733 17.0739 10.0653C16.8352 9.39489 16.7159 8.58523 16.7159 7.63636C16.7159 6.69318 16.8352 5.88778 17.0739 5.22017C17.3153 4.54972 17.6619 4.03835 18.1136 3.68608C18.5682 3.33097 19.1136 3.15341 19.75 3.15341C20.3864 3.15341 20.9304 3.33097 21.3821 3.68608C21.8366 4.03835 22.1832 4.54972 22.4219 5.22017C22.6634 5.88778 22.7841 6.69318 22.7841 7.63636C22.7841 8.58523 22.6648 9.39489 22.4261 10.0653C22.1875 10.733 21.8423 11.2429 21.3906 11.5952C20.9389 11.9446 20.392 12.1193 19.75 12.1193ZM19.75 11.1818C20.3864 11.1818 20.8807 10.875 21.233 10.2614C21.5852 9.64773 21.7614 8.77273 21.7614 7.63636C21.7614 6.88068 21.6804 6.23722 21.5185 5.70597C21.3594 5.17472 21.1293 4.76989 20.8281 4.49148C20.5298 4.21307 20.1705 4.07386 19.75 4.07386C19.1193 4.07386 18.6264 4.38494 18.2713 5.0071C17.9162 5.62642 17.7386 6.50284 17.7386 7.63636C17.7386 8.39205 17.8182 9.03409 17.9773 9.5625C18.1364 10.0909 18.3651 10.4929 18.6634 10.7685C18.9645 11.044 19.3267 11.1818 19.75 11.1818Z"
    fill="black" />
  <path
    d="M7.75 25.1193C7.10795 25.1193 6.56108 24.9446 6.10938 24.5952C5.65767 24.2429 5.3125 23.733 5.07386 23.0653C4.83523 22.3949 4.71591 21.5852 4.71591 20.6364C4.71591 19.6932 4.83523 18.8878 5.07386 18.2202C5.31534 17.5497 5.66193 17.0384 6.11364 16.6861C6.56818 16.331 7.11364 16.1534 7.75 16.1534C8.38636 16.1534 8.9304 16.331 9.3821 16.6861C9.83665 17.0384 10.1832 17.5497 10.4219 18.2202C10.6634 18.8878 10.7841 19.6932 10.7841 20.6364C10.7841 21.5852 10.6648 22.3949 10.4261 23.0653C10.1875 23.733 9.84233 24.2429 9.39062 24.5952C8.93892 24.9446 8.39205 25.1193 7.75 25.1193ZM7.75 24.1818C8.38636 24.1818 8.88068 23.875 9.23295 23.2614C9.58523 22.6477 9.76136 21.7727 9.76136 20.6364C9.76136 19.8807 9.6804 19.2372 9.51847 18.706C9.35938 18.1747 9.12926 17.7699 8.82812 17.4915C8.52983 17.2131 8.17045 17.0739 7.75 17.0739C7.11932 17.0739 6.62642 17.3849 6.27131 18.0071C5.91619 18.6264 5.73864 19.5028 5.73864 20.6364C5.73864 21.392 5.81818 22.0341 5.97727 22.5625C6.13636 23.0909 6.36506 23.4929 6.66335 23.7685C6.96449 24.044 7.3267 24.1818 7.75 24.1818Z"
    fill="black" />
  <rect x="100" y="100" width="100" height="100" fill="#D9D9D9" />
  <line x1="21" y1="256.5" x2="261" y2="256.5" stroke="black" />
  <line x1="260.5" y1="19" x2="260.5" y2="257" stroke="black" />
  <line x1="20" y1="99.5" x2="100" y2="99.5" stroke="black" />
  <line x1="99.5" y1="100" x2="99.5" y2="20" stroke="black" />
  <path
    d="M58.6705 105.455L60.2386 108.131L61.8068 105.455H62.9659L60.8523 108.727L62.9659 112H61.8068L60.2386 109.46L58.6705 112H57.5114L59.5909 108.727L57.5114 105.455H58.6705Z"
    fill="black" />
  <path
    d="M105.568 62.4545C105.398 62.4545 105.246 62.4403 105.112 62.4119C104.979 62.3864 104.886 62.3608 104.835 62.3352L105.091 61.4489C105.335 61.5114 105.551 61.5341 105.739 61.517C105.926 61.5 106.092 61.4162 106.237 61.2656C106.385 61.1179 106.52 60.8778 106.642 60.5455L106.83 60.0341L104.409 53.4545H105.5L107.307 58.6705H107.375L109.182 53.4545H110.273L107.494 60.9545C107.369 61.2926 107.214 61.5724 107.03 61.794C106.845 62.0185 106.631 62.1847 106.386 62.2926C106.145 62.4006 105.872 62.4545 105.568 62.4545Z"
    fill="black" />
  <path
    d="M127.403 272L125.409 265.455H126.466L127.881 270.466H127.949L129.347 265.455H130.42L131.801 270.449H131.869L133.284 265.455H134.341L132.347 272H131.358L129.926 266.972H129.824L128.392 272H127.403ZM135.67 272V265.455H136.676V272H135.67ZM136.182 264.364C135.986 264.364 135.817 264.297 135.675 264.163C135.536 264.03 135.466 263.869 135.466 263.682C135.466 263.494 135.536 263.334 135.675 263.2C135.817 263.067 135.986 263 136.182 263C136.378 263 136.545 263.067 136.685 263.2C136.827 263.334 136.898 263.494 136.898 263.682C136.898 263.869 136.827 264.03 136.685 264.163C136.545 264.297 136.378 264.364 136.182 264.364ZM140.99 272.136C140.444 272.136 139.963 271.999 139.545 271.723C139.127 271.445 138.801 271.053 138.565 270.547C138.329 270.038 138.211 269.438 138.211 268.744C138.211 268.057 138.329 267.46 138.565 266.955C138.801 266.449 139.129 266.058 139.549 265.783C139.97 265.507 140.456 265.369 141.007 265.369C141.433 265.369 141.77 265.44 142.017 265.582C142.267 265.722 142.457 265.881 142.588 266.06C142.721 266.236 142.825 266.381 142.899 266.494H142.984V263.273H143.99V272H143.018V270.994H142.899C142.825 271.114 142.72 271.264 142.583 271.446C142.447 271.625 142.252 271.786 142 271.928C141.747 272.067 141.41 272.136 140.99 272.136ZM141.126 271.233C141.529 271.233 141.87 271.128 142.149 270.918C142.427 270.705 142.639 270.411 142.784 270.036C142.929 269.658 143.001 269.222 143.001 268.727C143.001 268.239 142.93 267.811 142.788 267.445C142.646 267.075 142.436 266.788 142.157 266.584C141.879 266.376 141.535 266.273 141.126 266.273C140.7 266.273 140.345 266.382 140.061 266.601C139.779 266.817 139.568 267.111 139.426 267.483C139.287 267.852 139.217 268.267 139.217 268.727C139.217 269.193 139.288 269.616 139.43 269.997C139.575 270.375 139.788 270.676 140.069 270.901C140.353 271.122 140.706 271.233 141.126 271.233ZM148.818 265.455V266.307H145.426V265.455H148.818ZM146.414 263.886H147.42V270.125C147.42 270.409 147.461 270.622 147.544 270.764C147.629 270.903 147.737 270.997 147.868 271.045C148.001 271.091 148.142 271.114 148.289 271.114C148.4 271.114 148.491 271.108 148.562 271.097C148.633 271.082 148.69 271.071 148.733 271.062L148.937 271.966C148.869 271.991 148.774 272.017 148.652 272.043C148.529 272.071 148.375 272.085 148.187 272.085C147.903 272.085 147.625 272.024 147.352 271.902C147.082 271.78 146.858 271.594 146.679 271.344C146.502 271.094 146.414 270.778 146.414 270.398V263.886ZM151.477 268.062V272H150.471V263.273H151.477V266.477H151.562C151.716 266.139 151.946 265.871 152.252 265.672C152.562 265.47 152.974 265.369 153.488 265.369C153.934 265.369 154.325 265.459 154.66 265.638C154.995 265.814 155.255 266.085 155.44 266.452C155.627 266.815 155.721 267.278 155.721 267.841V272H154.716V267.909C154.716 267.389 154.581 266.987 154.311 266.703C154.044 266.416 153.673 266.273 153.199 266.273C152.869 266.273 152.574 266.342 152.312 266.482C152.054 266.621 151.849 266.824 151.699 267.091C151.551 267.358 151.477 267.682 151.477 268.062Z"
    fill="black" />
  <path
    d="M271.062 146.074H275V147.08H266.273V146.074H269.477V145.989C269.139 145.835 268.871 145.605 268.672 145.298C268.47 144.989 268.369 144.577 268.369 144.062C268.369 143.616 268.459 143.226 268.638 142.891C268.814 142.555 269.085 142.295 269.452 142.111C269.815 141.923 270.278 141.83 270.841 141.83H275V142.835H270.909C270.389 142.835 269.987 142.97 269.703 143.24C269.416 143.507 269.273 143.878 269.273 144.352C269.273 144.682 269.342 144.977 269.482 145.239C269.621 145.497 269.824 145.702 270.091 145.852C270.358 146 270.682 146.074 271.062 146.074ZM275.136 137.245C275.136 137.876 274.997 138.42 274.719 138.877C274.438 139.332 274.045 139.683 273.543 139.93C273.037 140.174 272.449 140.297 271.778 140.297C271.108 140.297 270.517 140.174 270.006 139.93C269.491 139.683 269.091 139.339 268.804 138.899C268.514 138.456 268.369 137.939 268.369 137.348C268.369 137.007 268.426 136.67 268.54 136.338C268.653 136.005 268.838 135.703 269.094 135.43C269.347 135.157 269.682 134.94 270.099 134.778C270.517 134.616 271.031 134.535 271.642 134.535H272.068V139.581H271.199V135.558C270.83 135.558 270.5 135.632 270.21 135.779C269.92 135.924 269.692 136.132 269.524 136.402C269.357 136.669 269.273 136.984 269.273 137.348C269.273 137.748 269.372 138.095 269.571 138.387C269.767 138.677 270.023 138.9 270.338 139.056C270.653 139.213 270.991 139.291 271.352 139.291H271.932C272.426 139.291 272.845 139.206 273.189 139.035C273.53 138.862 273.79 138.622 273.969 138.315C274.145 138.008 274.233 137.652 274.233 137.245C274.233 136.981 274.196 136.743 274.122 136.529C274.045 136.314 273.932 136.127 273.781 135.971C273.628 135.815 273.437 135.694 273.21 135.609L273.483 134.637C273.812 134.74 274.102 134.912 274.352 135.153C274.599 135.395 274.793 135.693 274.932 136.048C275.068 136.403 275.136 136.802 275.136 137.245ZM275 133.005H268.455V132H275V133.005ZM267.364 132.494C267.364 132.69 267.297 132.859 267.163 133.001C267.03 133.14 266.869 133.21 266.682 133.21C266.494 133.21 266.334 133.14 266.2 133.001C266.067 132.859 266 132.69 266 132.494C266 132.298 266.067 132.13 266.2 131.991C266.334 131.849 266.494 131.778 266.682 131.778C266.869 131.778 267.03 131.849 267.163 131.991C267.297 132.13 267.364 132.298 267.364 132.494ZM277.591 127.516C277.591 128.001 277.528 128.419 277.403 128.768C277.281 129.118 277.119 129.409 276.918 129.642C276.719 129.872 276.506 130.055 276.278 130.192L275.716 129.391C275.835 129.3 275.972 129.185 276.125 129.045C276.281 128.906 276.416 128.716 276.53 128.474C276.646 128.23 276.705 127.911 276.705 127.516C276.705 126.987 276.577 126.551 276.321 126.207C276.065 125.864 275.665 125.692 275.119 125.692H273.79V125.777C273.909 125.851 274.057 125.956 274.233 126.092C274.406 126.226 274.561 126.419 274.697 126.672C274.831 126.922 274.898 127.26 274.898 127.686C274.898 128.214 274.773 128.689 274.523 129.109C274.273 129.527 273.909 129.858 273.432 130.102C272.955 130.344 272.375 130.464 271.693 130.464C271.023 130.464 270.439 130.347 269.942 130.111C269.442 129.875 269.055 129.547 268.783 129.126C268.507 128.706 268.369 128.22 268.369 127.669C268.369 127.243 268.44 126.905 268.582 126.655C268.722 126.402 268.881 126.209 269.06 126.075C269.236 125.939 269.381 125.834 269.494 125.76V125.658H268.455V124.686H275.188C275.75 124.686 276.207 124.814 276.56 125.07C276.915 125.322 277.175 125.663 277.339 126.092C277.507 126.518 277.591 126.993 277.591 127.516ZM273.994 127.55C273.994 127.146 273.902 126.805 273.717 126.527C273.533 126.249 273.267 126.037 272.92 125.892C272.574 125.747 272.159 125.675 271.676 125.675C271.205 125.675 270.788 125.746 270.428 125.888C270.067 126.03 269.784 126.24 269.58 126.518C269.375 126.797 269.273 127.141 269.273 127.55C269.273 127.976 269.381 128.331 269.597 128.615C269.812 128.896 270.102 129.108 270.466 129.25C270.83 129.389 271.233 129.459 271.676 129.459C272.131 129.459 272.533 129.388 272.882 129.246C273.229 129.101 273.501 128.888 273.7 128.607C273.896 128.322 273.994 127.97 273.994 127.55ZM271.062 121.839H275V122.845H266.273V121.839H269.477V121.754C269.139 121.601 268.871 121.371 268.672 121.064C268.47 120.754 268.369 120.342 268.369 119.828C268.369 119.382 268.459 118.991 268.638 118.656C268.814 118.321 269.085 118.061 269.452 117.876C269.815 117.689 270.278 117.595 270.841 117.595H275V118.601H270.909C270.389 118.601 269.987 118.736 269.703 119.006C269.416 119.273 269.273 119.643 269.273 120.118C269.273 120.447 269.342 120.743 269.482 121.004C269.621 121.263 269.824 121.467 270.091 121.618C270.358 121.766 270.682 121.839 271.062 121.839ZM268.455 112.909H269.307V116.301H268.455V112.909ZM266.886 115.312V114.306H273.125C273.409 114.306 273.622 114.265 273.764 114.183C273.903 114.098 273.997 113.99 274.045 113.859C274.091 113.725 274.114 113.585 274.114 113.437C274.114 113.326 274.108 113.235 274.097 113.164C274.082 113.093 274.071 113.037 274.062 112.994L274.966 112.789C274.991 112.858 275.017 112.953 275.043 113.075C275.071 113.197 275.085 113.352 275.085 113.539C275.085 113.824 275.024 114.102 274.902 114.375C274.78 114.645 274.594 114.869 274.344 115.048C274.094 115.224 273.778 115.312 273.398 115.312H266.886Z"
    fill="black" />
</svg>